<?xml version="1.0" encoding="UTF-8" standalone="no"?>
<svg
   xmlns:dc="http://purl.org/dc/elements/1.1/"
   xmlns:cc="http://creativecommons.org/ns#"
   xmlns:rdf="http://www.w3.org/1999/02/22-rdf-syntax-ns#"
   xmlns:svg="http://www.w3.org/2000/svg"
   xmlns="http://www.w3.org/2000/svg"
   xmlns:xlink="http://www.w3.org/1999/xlink"
   xmlns:sodipodi="http://sodipodi.sourceforge.net/DTD/sodipodi-0.dtd"
   xmlns:inkscape="http://www.inkscape.org/namespaces/inkscape"
   id="Componente_15_1"
   data-name="Componente 15 – 1"
   width="812"
   height="573.428"
   viewBox="0 0 812 573.428"
   version="1.1"
   sodipodi:docname="bannerContato.svg"
   inkscape:version="1.0 (4035a4fb49, 2020-05-01)">
  <metadata
     id="metadata370">
    <rdf:RDF>
      <cc:Work
         rdf:about="">
        <dc:format>image/svg+xml</dc:format>
        <dc:type
           rdf:resource="http://purl.org/dc/dcmitype/StillImage" />
      </cc:Work>
    </rdf:RDF>
  </metadata>
  <sodipodi:namedview
     inkscape:document-rotation="0"
     pagecolor="#ffffff"
     bordercolor="#666666"
     borderopacity="1"
     objecttolerance="10"
     gridtolerance="10"
     guidetolerance="10"
     inkscape:pageopacity="0"
     inkscape:pageshadow="2"
     inkscape:window-width="1920"
     inkscape:window-height="1017"
     id="namedview368"
     showgrid="false"
     inkscape:zoom="1.6523838"
     inkscape:cx="375.67045"
     inkscape:cy="312.86249"
     inkscape:window-x="1592"
     inkscape:window-y="-8"
     inkscape:window-maximized="1"
     inkscape:current-layer="Componente_15_1" />
  <defs
     id="defs199">
    <linearGradient
       id="linear-gradient"
       x1="0.5"
       y1="1"
       x2="0.5"
       gradientUnits="objectBoundingBox">
      <stop
         offset="0"
         stop-color="gray"
         stop-opacity="0.251"
         id="stop191" />
      <stop
         offset="0.54"
         stop-color="gray"
         stop-opacity="0.122"
         id="stop193" />
      <stop
         offset="1"
         stop-color="gray"
         stop-opacity="0.102"
         id="stop195" />
    </linearGradient>
    <linearGradient
       id="linear-gradient-2"
       x1="0.5"
       y1="1"
       x2="0.5"
       y2="-0.001"
       xlink:href="#linear-gradient" />
  </defs>
  <g
     id="Grupo_84"
     data-name="Grupo 84"
     transform="translate(299.489 42.793)"
     opacity="0.1">
    <ellipse
       id="Elipse_20"
       data-name="Elipse 20"
       cx="12.175"
       cy="15.94"
       rx="12.175"
       ry="15.94"
       transform="translate(45.886 329.057)"
       fill="#3f3d56" />
    <path
       id="Caminho_75"
       data-name="Caminho 75"
       d="M541.857,462.677a19.258,19.258,0,0,0,2.546-9.746c0-8.8-5.456-15.94-12.185-15.94S520,444.147,520,452.952a19.258,19.258,0,0,0,2.546,9.746,19.909,19.909,0,0,0,0,19.482,19.909,19.909,0,0,0,0,19.482A19.193,19.193,0,0,0,520,511.407c0,8.794,5.456,15.94,12.175,15.94s12.185-7.146,12.185-15.94a19.193,19.193,0,0,0-2.546-9.746,19.91,19.91,0,0,0,0-19.482,19.91,19.91,0,0,0,0-19.482Z"
       transform="translate(-474.157 -185.881)"
       fill="#3f3d56" />
    <ellipse
       id="Elipse_21"
       data-name="Elipse 21"
       cx="12.175"
       cy="15.94"
       rx="12.175"
       ry="15.94"
       transform="translate(45.886 231.649)"
       fill="#3f3d56" />
    <ellipse
       id="Elipse_22"
       data-name="Elipse 22"
       cx="12.175"
       cy="15.94"
       rx="12.175"
       ry="15.94"
       transform="translate(45.886 212.167)"
       fill="#3f3d56" />
    <path
       id="Caminho_76"
       data-name="Caminho 76"
       d="M489.635,297.046a56.785,56.785,0,0,1-4.536-6.676l31.988-5.253-34.6.257a58.434,58.434,0,0,1-1.07-46.217l46.42,24.082-42.793-31.474a58.338,58.338,0,1,1,96.285,65.26,58.351,58.351,0,0,1,6.654,10.634l-41.542,21.632,44.28-14.86a58.338,58.338,0,0,1-9.4,54.775,58.327,58.327,0,1,1-91.684,0,58.327,58.327,0,0,1,0-72.128Z"
       transform="translate(-477.149 -202.271)"
       fill="#f2a0a0" />
    <path
       id="Caminho_77"
       data-name="Caminho 77"
       d="M593.8,324.626a58.059,58.059,0,0,1-12.485,36.064,58.327,58.327,0,1,1-91.684,0C481.815,350.762,593.8,318.079,593.8,324.626Z"
       transform="translate(-477.149 -193.787)"
       opacity="0.1" />
  </g>
  <g
     id="Grupo_85"
     data-name="Grupo 85"
     transform="translate(408.46 84.478)"
     opacity="0.1">
    <ellipse
       id="Elipse_23"
       data-name="Elipse 23"
       cx="9.104"
       cy="11.907"
       rx="9.104"
       ry="11.907"
       transform="translate(34.288 245.694)"
       fill="#3f3d56" />
    <path
       id="Caminho_78"
       data-name="Caminho 78"
       d="M672.064,446.513a14.366,14.366,0,0,0,1.894-7.275c0-6.579-4.076-11.918-9.094-11.918s-9.1,5.349-9.1,11.918a14.261,14.261,0,0,0,1.9,7.275,14.871,14.871,0,0,0,0,14.56,14.871,14.871,0,0,0,0,14.56,14.26,14.26,0,0,0-1.9,7.275c0,6.579,4.076,11.918,9.1,11.918s9.094-5.349,9.094-11.918a14.366,14.366,0,0,0-1.894-7.275,14.977,14.977,0,0,0,0-14.56,14.978,14.978,0,0,0,0-14.56Z"
       transform="translate(-621.483 -239.868)"
       fill="#3f3d56" />
    <ellipse
       id="Elipse_24"
       data-name="Elipse 24"
       cx="9.104"
       cy="11.907"
       rx="9.104"
       ry="11.907"
       transform="translate(34.288 172.902)"
       fill="#3f3d56" />
    <ellipse
       id="Elipse_25"
       data-name="Elipse 25"
       cx="9.104"
       cy="11.907"
       rx="9.104"
       ry="11.907"
       transform="translate(34.288 158.342)"
       fill="#3f3d56" />
    <path
       id="Caminho_79"
       data-name="Caminho 79"
       d="M633.049,322.719a41.715,41.715,0,0,1-3.391-4.985l23.911-3.926L627.711,314a43.692,43.692,0,0,1-.834-34.545l34.695,18.005-32-23.536a43.6,43.6,0,1,1,71.989,48.784,44.077,44.077,0,0,1,4.975,7.949L675.51,346.78l33.09-11.1a43.606,43.606,0,0,1-7.029,40.932,43.585,43.585,0,1,1-68.469,0,43.585,43.585,0,0,1,0-53.9Z"
       transform="translate(-623.72 -252.103)"
       fill="#f2a0a0" />
    <path
       id="Caminho_80"
       data-name="Caminho 80"
       d="M710.888,343.342a43.4,43.4,0,0,1-9.329,26.949,43.585,43.585,0,1,1-68.469,0C627.228,362.877,710.888,338.453,710.888,343.342Z"
       transform="translate(-623.719 -245.777)"
       opacity="0.1" />
  </g>
  <g
     id="Grupo_86"
     data-name="Grupo 86"
     transform="translate(691.688)"
     opacity="0.1">
    <ellipse
       id="Elipse_26"
       data-name="Elipse 26"
       cx="12.175"
       cy="15.94"
       rx="12.175"
       ry="15.94"
       transform="translate(46.707 329.057)"
       fill="#3f3d56" />
    <path
       id="Caminho_81"
       data-name="Caminho 81"
       d="M1081.736,422.677a19.258,19.258,0,0,1-2.546-9.746c0-8.8,5.456-15.94,12.185-15.94s12.175,7.136,12.175,15.94a19.255,19.255,0,0,1-2.546,9.746,19.911,19.911,0,0,1,0,19.482,19.911,19.911,0,0,1,0,19.482,19.191,19.191,0,0,1,2.546,9.746c0,8.794-5.456,15.94-12.175,15.94s-12.185-7.146-12.185-15.94a19.191,19.191,0,0,1,2.546-9.746,19.909,19.909,0,0,1,0-19.482A19.909,19.909,0,0,1,1081.736,422.677Z"
       transform="translate(-1032.493 -145.881)"
       fill="#3f3d56" />
    <ellipse
       id="Elipse_27"
       data-name="Elipse 27"
       cx="12.175"
       cy="15.94"
       rx="12.175"
       ry="15.94"
       transform="translate(46.707 231.649)"
       fill="#3f3d56" />
    <ellipse
       id="Elipse_28"
       data-name="Elipse 28"
       cx="12.175"
       cy="15.94"
       rx="12.175"
       ry="15.94"
       transform="translate(46.707 212.167)"
       fill="#3f3d56" />
    <path
       id="Caminho_82"
       data-name="Caminho 82"
       d="M1140,257.046a56.8,56.8,0,0,0,4.536-6.676l-31.988-5.253,34.6.257a58.434,58.434,0,0,0,1.07-46.217l-46.42,24.082,42.793-31.474a58.338,58.338,0,1,0-96.285,65.26,58.349,58.349,0,0,0-6.654,10.634l41.541,21.632-44.28-14.86a58.338,58.338,0,0,0,9.4,54.775,58.327,58.327,0,1,0,91.684,0,58.327,58.327,0,0,0,0-72.128Z"
       transform="translate(-1035.541 -162.271)"
       fill="#f2a0a0" />
    <path
       id="Caminho_83"
       data-name="Caminho 83"
       d="M1035.81,284.626A58.058,58.058,0,0,0,1048.3,320.69a58.327,58.327,0,1,0,91.684,0C1147.8,310.762,1035.81,278.079,1035.81,284.626Z"
       transform="translate(-1035.523 -153.787)"
       opacity="0.1" />
  </g>
  <g
     id="Grupo_87"
     data-name="Grupo 87"
     transform="translate(589.215 89.686)"
     opacity="0.1">
    <ellipse
       id="Elipse_29"
       data-name="Elipse 29"
       cx="9.104"
       cy="11.907"
       rx="9.104"
       ry="11.907"
       transform="translate(34.72 245.694)"
       fill="#3f3d56" />
    <path
       id="Caminho_84"
       data-name="Caminho 84"
       d="M974.124,440.513a14.368,14.368,0,0,1-1.894-7.275c0-6.579,4.076-11.918,9.094-11.918s9.1,5.349,9.1,11.918a14.26,14.26,0,0,1-1.9,7.275,14.871,14.871,0,0,1,0,14.56,14.871,14.871,0,0,1,0,14.56,14.261,14.261,0,0,1,1.9,7.275c0,6.579-4.076,11.918-9.1,11.918s-9.094-5.349-9.094-11.918a14.367,14.367,0,0,1,1.894-7.275,14.977,14.977,0,0,1,0-14.56,14.977,14.977,0,0,1,0-14.56Z"
       transform="translate(-937.489 -233.868)"
       fill="#3f3d56" />
    <ellipse
       id="Elipse_30"
       data-name="Elipse 30"
       cx="9.104"
       cy="11.907"
       rx="9.104"
       ry="11.907"
       transform="translate(34.72 172.902)"
       fill="#3f3d56" />
    <ellipse
       id="Elipse_31"
       data-name="Elipse 31"
       cx="9.104"
       cy="11.907"
       rx="9.104"
       ry="11.907"
       transform="translate(34.72 158.342)"
       fill="#3f3d56" />
    <path
       id="Caminho_85"
       data-name="Caminho 85"
       d="M1017.644,316.719a41.706,41.706,0,0,0,3.391-4.985l-23.911-3.926,25.858.193a43.691,43.691,0,0,0,.835-34.545l-34.695,18.005,32-23.536a43.6,43.6,0,1,0-71.989,48.784,44.08,44.08,0,0,0-4.975,7.949l31.025,16.122-33.026-11.094a43.607,43.607,0,0,0,7.029,40.932,43.585,43.585,0,1,0,68.469,0,43.585,43.585,0,0,0,0-53.9Z"
       transform="translate(-939.757 -246.103)"
       fill="#f2a0a0" />
    <path
       id="Caminho_86"
       data-name="Caminho 86"
       d="M939.8,337.342a43.4,43.4,0,0,0,9.329,26.949,43.585,43.585,0,1,0,68.469,0C1023.462,356.877,939.8,332.453,939.8,337.342Z"
       transform="translate(-939.755 -239.777)"
       opacity="0.1" />
  </g>
  <g
     id="Grupo_88"
     data-name="Grupo 88"
     transform="translate(7.819 0.179)"
     opacity="0.1">
    <ellipse
       id="Elipse_32"
       data-name="Elipse 32"
       cx="12.175"
       cy="15.94"
       rx="12.175"
       ry="15.94"
       transform="translate(45.897 328.877)"
       fill="#3f3d56" />
    <path
       id="Caminho_87"
       data-name="Caminho 87"
       d="M124.013,422.677a19.257,19.257,0,0,0,2.546-9.746c0-8.8-5.456-15.94-12.175-15.94s-12.175,7.136-12.175,15.94a19.257,19.257,0,0,0,2.536,9.746,19.974,19.974,0,0,0,0,19.482,19.974,19.974,0,0,0,0,19.482,19.182,19.182,0,0,0-2.536,9.746c0,8.794,5.445,15.94,12.175,15.94s12.207-7.125,12.207-15.919a19.193,19.193,0,0,0-2.546-9.746,19.91,19.91,0,0,0,0-19.482,19.91,19.91,0,0,0,0-19.482Z"
       transform="translate(-56.314 -146.06)"
       fill="#3f3d56" />
    <ellipse
       id="Elipse_33"
       data-name="Elipse 33"
       cx="12.175"
       cy="15.94"
       rx="12.175"
       ry="15.94"
       transform="translate(45.897 231.47)"
       fill="#3f3d56" />
    <ellipse
       id="Elipse_34"
       data-name="Elipse 34"
       cx="12.175"
       cy="15.94"
       rx="12.175"
       ry="15.94"
       transform="translate(45.897 211.988)"
       fill="#3f3d56" />
    <path
       id="Caminho_88"
       data-name="Caminho 88"
       d="M71.816,257.034a58.123,58.123,0,0,1-4.536-6.676l32-5.253-34.63.31a58.434,58.434,0,0,1-1.07-46.217l46.431,24.082L67.216,191.807a58.327,58.327,0,1,1,96.285,65.26,58.349,58.349,0,0,1,6.654,10.634L128.6,289.279l44.291-14.86a58.4,58.4,0,0,1-9.415,54.775,58.327,58.327,0,1,1-91.684,0,58.327,58.327,0,0,1,0-72.128Z"
       transform="translate(-59.309 -162.439)"
       fill="#f2a0a0" />
    <path
       id="Caminho_89"
       data-name="Caminho 89"
       d="M175.964,284.626a58.059,58.059,0,0,1-12.485,36.064,58.327,58.327,0,1,1-91.684,0C63.975,310.762,175.964,278.079,175.964,284.626Z"
       transform="translate(-59.309 -153.967)"
       opacity="0.1" />
  </g>
  <g
     id="Grupo_89"
     data-name="Grupo 89"
     transform="translate(140.02 89.686)"
     opacity="0.1">
    <ellipse
       id="Elipse_35"
       data-name="Elipse 35"
       cx="9.104"
       cy="11.907"
       rx="9.104"
       ry="11.907"
       transform="translate(34.288 245.694)"
       fill="#3f3d56" />
    <path
       id="Caminho_90"
       data-name="Caminho 90"
       d="M231.234,440.513a14.367,14.367,0,0,0,1.894-7.275c0-6.579-4.065-11.918-9.094-11.918s-9.1,5.349-9.1,11.918a14.367,14.367,0,0,0,1.9,7.275,14.871,14.871,0,0,0,0,14.56,14.871,14.871,0,0,0,0,14.56,14.368,14.368,0,0,0-1.9,7.275c0,6.579,4.076,11.918,9.1,11.918s9.094-5.349,9.094-11.918a14.368,14.368,0,0,0-1.894-7.275,14.978,14.978,0,0,0,0-14.56,14.977,14.977,0,0,0,0-14.56Z"
       transform="translate(-180.642 -233.868)"
       fill="#3f3d56" />
    <ellipse
       id="Elipse_36"
       data-name="Elipse 36"
       cx="9.104"
       cy="11.907"
       rx="9.104"
       ry="11.907"
       transform="translate(34.288 172.903)"
       fill="#3f3d56" />
    <ellipse
       id="Elipse_37"
       data-name="Elipse 37"
       cx="9.104"
       cy="11.907"
       rx="9.104"
       ry="11.907"
       transform="translate(34.288 158.342)"
       fill="#3f3d56" />
    <path
       id="Caminho_91"
       data-name="Caminho 91"
       d="M192.209,316.719a43.011,43.011,0,0,1-3.391-4.985l23.911-3.926L186.87,308a43.692,43.692,0,0,1-.834-34.545l34.695,18.005-32-23.536a43.6,43.6,0,1,1,71.989,48.784,42.924,42.924,0,0,1,4.975,7.949L234.67,340.78l33.09-11.1a43.606,43.606,0,0,1-7.029,40.932,43.585,43.585,0,1,1-68.469,0,43.585,43.585,0,0,1,0-53.9Z"
       transform="translate(-182.88 -246.103)"
       fill="#f2a0a0" />
    <path
       id="Caminho_92"
       data-name="Caminho 92"
       d="M270.048,337.342a43.4,43.4,0,0,1-9.329,26.949,43.585,43.585,0,1,1-68.469,0C186.366,356.877,270.048,332.453,270.048,337.342Z"
       transform="translate(-182.879 -239.777)"
       opacity="0.1" />
  </g>
  <ellipse
     id="Elipse_38"
     data-name="Elipse 38"
     cx="406"
     cy="9.479"
     rx="406"
     ry="9.479"
     transform="translate(0 476.641)"
     fill="#f2a0a0"
     opacity="0.1" />
  <ellipse
     id="Elipse_39"
     data-name="Elipse 39"
     cx="406"
     cy="9.479"
     rx="406"
     ry="9.479"
     transform="translate(0 554.471)"
     fill="#f2a0a0"
     opacity="0.1" />
  <ellipse
     id="Elipse_40"
     data-name="Elipse 40"
     cx="406"
     cy="9.479"
     rx="406"
     ry="9.479"
     transform="translate(0 331.063)"
     fill="#f2a0a0"
     opacity="0.1" />
  <ellipse
     id="Elipse_41"
     data-name="Elipse 41"
     cx="406"
     cy="9.479"
     rx="406"
     ry="9.479"
     transform="translate(0 406.576)"
     fill="#f2a0a0"
     opacity="0.1" />
  <path
     id="Caminho_93"
     data-name="Caminho 93"
     d="M864.619,274.7a19.577,19.577,0,0,0-11.34,1.241,16.743,16.743,0,0,1-13.63,0,19.129,19.129,0,0,0-16.047.31,9.886,9.886,0,0,1-4.611,1.155c-6.5,0-11.907-6.547-13.03-15.181a12.707,12.707,0,0,0,3.21-3.5c3.809-6.141,9.7-10.088,16.336-10.088s12.453,3.894,16.261,9.971a12.5,12.5,0,0,0,10.795,5.927h.171C857.964,264.484,862.447,268.635,864.619,274.7Z"
     transform="translate(-260.43 -156.24)"
     fill="#f2a0a0"
     opacity="0.1" />
  <path
     id="Caminho_94"
     data-name="Caminho 94"
     d="M884.423,249.158l-10.506,6.654,6.419-11.6a10.378,10.378,0,0,0-6.355-2.257h-.171a12.144,12.144,0,0,1-2.14-.16l-3.616,2.257,1.53-2.782a12.613,12.613,0,0,1-6.237-4.729l-6.419,4.044,4.023-7.318c-3.723-4.472-8.751-7.211-14.272-7.211-6.633,0-12.528,3.937-16.347,10.078a12.207,12.207,0,0,1-10.795,5.82h-.353c-7.318,0-13.245,8.291-13.245,18.519s5.927,18.529,13.245,18.529a10.046,10.046,0,0,0,4.611-1.155,19.107,19.107,0,0,1,16.047-.321,16.636,16.636,0,0,0,13.63,0,19.171,19.171,0,0,1,15.9.31,9.949,9.949,0,0,0,4.557,1.134c7.318,0,13.244-8.3,13.244-18.529a23.46,23.46,0,0,0-2.749-11.287Z"
     transform="translate(-265.825 -157.817)"
     fill="#f2a0a0"
     opacity="0.1" />
  <path
     id="Caminho_95"
     data-name="Caminho 95"
     d="M445.939,268.781a13.737,13.737,0,0,0-7.949.867,11.682,11.682,0,0,1-9.532,0,13.352,13.352,0,0,0-11.223.225,7.083,7.083,0,0,1-3.209.8c-4.547,0-8.334-4.579-9.126-10.623a8.9,8.9,0,0,0,2.279-2.45c2.664-4.279,6.793-7.061,11.436-7.061s8.719,2.728,11.383,6.975a8.762,8.762,0,0,0,7.564,4.151h.118C441.274,261.645,444.409,264.555,445.939,268.781Z"
     transform="translate(-147.655 -156.108)"
     fill="#f2a0a0"
     opacity="0.1" />
  <path
     id="Caminho_96"
     data-name="Caminho 96"
     d="M459.794,250.916l-7.35,4.664,4.461-8.12a7.222,7.222,0,0,0-4.44-1.583h-.128a8.014,8.014,0,0,1-1.519-.118l-2.493,1.583,1.07-1.947a8.88,8.88,0,0,1-4.365-3.306l-4.461,2.824,2.824-5.114a13.062,13.062,0,0,0-9.992-5.06c-4.643,0-8.773,2.76-11.436,7.061a8.559,8.559,0,0,1-7.564,4.076h-.246c-5.124,0-9.275,5.8-9.275,12.966s4.151,12.966,9.275,12.966a6.954,6.954,0,0,0,3.21-.813,13.373,13.373,0,0,1,11.212-.214,11.49,11.49,0,0,0,9.543.064,13.416,13.416,0,0,1,11.126.214,6.933,6.933,0,0,0,3.21.792c5.114,0,9.265-5.809,9.265-12.966a16.4,16.4,0,0,0-1.926-7.97Z"
     transform="translate(-149.354 -157.211)"
     fill="#f2a0a0"
     opacity="0.1" />
  <path
     id="Caminho_97"
     data-name="Caminho 97"
     d="M321.59,347.191a13.715,13.715,0,0,1,7.938.867,11.7,11.7,0,0,0,9.543,0,13.394,13.394,0,0,1,11.223.214,6.921,6.921,0,0,0,3.209.813c4.547,0,8.334-4.59,9.115-10.634A8.719,8.719,0,0,1,360.35,336c-2.675-4.279-6.8-7.05-11.436-7.05s-8.719,2.717-11.394,6.975a8.762,8.762,0,0,1-7.553,4.151h-.118C326.244,340.1,323.1,343,321.59,347.191Z"
     transform="translate(-125.073 -163.166)"
     fill="#f2a0a0"
     opacity="0.1" />
  <path
     id="Caminho_98"
     data-name="Caminho 98"
     d="M308.754,329.355l7.36,4.664-4.472-8.109a7.264,7.264,0,0,1,4.45-1.594h.118a9.116,9.116,0,0,0,1.53-.107l2.493,1.573-1.07-1.936a8.869,8.869,0,0,0,4.354-3.306l4.461,2.824L325.2,318.24a13.052,13.052,0,0,1,9.992-5.05c4.632,0,8.773,2.76,11.436,7.061a8.559,8.559,0,0,0,7.553,4.076h.257c5.114,0,9.265,5.809,9.265,12.966s-4.151,12.966-9.265,12.966a6.943,6.943,0,0,1-3.21-.8A13.351,13.351,0,0,0,340,349.233a11.619,11.619,0,0,1-4.793,1.07,11.769,11.769,0,0,1-4.75-1.006,13.394,13.394,0,0,0-11.116.214,6.933,6.933,0,0,1-3.209.792c-5.125,0-9.275-5.8-9.275-12.966a16.519,16.519,0,0,1,1.894-7.981Z"
     transform="translate(-122.311 -163.414)"
     fill="#f2a0a0"
     opacity="0.1" />
  <path
     id="Caminho_99"
     data-name="Caminho 99"
     d="M717.094,660.325c2.792-5.178-.374-11.511-4.012-16.122s-8.088-9.414-7.992-15.288c.139-8.441,9.1-13.437,16.261-17.909a79.488,79.488,0,0,0,14.6-11.768,21.534,21.534,0,0,0,4.483-6.013c1.487-3.295,1.444-7.061,1.348-10.7q-.46-18.069-1.787-36.117"
     transform="translate(-228.18 -177.276)"
     fill="none"
     stroke="#3f3d56"
     stroke-miterlimit="10"
     stroke-width="4" />
  <path
     id="Caminho_100"
     data-name="Caminho 100"
     d="M752.168,546.67a13.17,13.17,0,0,0-6.579-10.795l-2.953,5.831.1-7.061a13.17,13.17,0,1,0,9.436,12.025Z"
     transform="translate(-231.703 -164.561)"
     fill="#f2a0a0" />
  <path
     id="Caminho_101"
     data-name="Caminho 101"
     d="M730.114,630.415a13.17,13.17,0,0,1-24.863-5.349,12.837,12.837,0,0,1,.856-5.349,13.18,13.18,0,0,1,24.606.139l-8.227,6.7,9.051-2.14A13.1,13.1,0,0,1,730.114,630.415Z"
     transform="translate(-226.2 -165.03)"
     fill="#f2a0a0" />
  <path
     id="Caminho_102"
     data-name="Caminho 102"
     d="M723.31,606.989a13.17,13.17,0,0,1-4.172-25.836l-.075,5.424,2.985-5.905h0a13.173,13.173,0,1,1,1.23,26.318Z"
     transform="translate(-227.345 -164.848)"
     fill="#f2a0a0" />
  <path
     id="Caminho_103"
     data-name="Caminho 103"
     d="M753.2,587.1a13.17,13.17,0,1,1,5.82-24.606l-2.322,6.419,4.739-4.686a13.17,13.17,0,0,1-8.28,22.862Z"
     transform="translate(-235.31 -164.725)"
     fill="#f2a0a0" />
  <path
     id="Caminho_104"
     data-name="Caminho 104"
     d="M750.394,549.708c-3.038.332-5.991,1.273-9.051,1.466s-6.419-.546-8.323-2.91a42.242,42.242,0,0,1-2.439-4.279,9.372,9.372,0,0,0-3.316-3.124,13.17,13.17,0,1,0,24.606,8.751C751.389,549.622,750.886,549.654,750.394,549.708Z"
     transform="translate(-231.64 -164.256)"
     opacity="0.1" />
  <path
     id="Caminho_105"
     data-name="Caminho 105"
     d="M753.2,586.606a13.17,13.17,0,0,1-12.528-18.786,9.748,9.748,0,0,1,2.643,2.653,44.632,44.632,0,0,0,2.61,4.354c2.054,2.407,5.563,3.209,8.741,3.049s6.248-1.07,9.414-1.337c.439,0,.877-.064,1.327-.075A13.17,13.17,0,0,1,753.2,586.606Z"
     transform="translate(-235.251 -164.379)"
     opacity="0.1" />
  <path
     id="Caminho_106"
     data-name="Caminho 106"
     d="M723.31,606.48a13.17,13.17,0,0,1-12.635-18.54,10.7,10.7,0,0,1,2.792,2.674,44.116,44.116,0,0,0,2.857,4.44c2.214,2.471,5.959,3.349,9.318,3.209s6.419-.867,9.628-1.07a13.191,13.191,0,0,1-11.961,9.286Z"
     transform="translate(-227.236 -164.471)"
     opacity="0.1" />
  <path
     id="Caminho_107"
     data-name="Caminho 107"
     d="M730.114,629.868a13.17,13.17,0,0,1-24.863-5.349,12.837,12.837,0,0,1,.856-5.349A13.144,13.144,0,0,1,709,621.748c1.252,1.519,2.075,3.21,3.53,4.675,2.685,2.642,7.039,3.734,10.9,3.83A55.333,55.333,0,0,0,730.114,629.868Z"
     transform="translate(-225.927 -164.591)"
     opacity="0.1" />
  <path
     id="Caminho_108"
     data-name="Caminho 108"
     d="M107.094,588.325c2.792-5.178-.374-11.511-4.012-16.122s-8.088-9.436-7.992-15.288c.139-8.441,9.1-13.437,16.261-17.909a79.494,79.494,0,0,0,14.6-11.768,21.538,21.538,0,0,0,4.483-6.012c1.487-3.3,1.444-7.061,1.348-10.7q-.471-18.069-1.787-36.117"
     transform="translate(-48.991 -168.337)"
     fill="none"
     stroke="#3f3d56"
     stroke-miterlimit="10"
     stroke-width="4" />
  <path
     id="Caminho_109"
     data-name="Caminho 109"
     d="M142.168,474.67a13.17,13.17,0,0,0-6.579-10.795l-2.953,5.831.1-7.061a13.17,13.17,0,1,0,9.436,12.025Z"
     transform="translate(-47.542 -164.118)"
     fill="#f2a0a0" />
  <path
     id="Caminho_110"
     data-name="Caminho 110"
     d="M120.114,558.416a13.17,13.17,0,0,1-24.863-5.349,12.838,12.838,0,0,1,.856-5.349,13.18,13.18,0,0,1,24.606.139l-8.227,6.7,9.051-2.14a13.1,13.1,0,0,1-1.423,6Z"
     transform="translate(-48.981 -164.588)"
     fill="#f2a0a0" />
  <path
     id="Caminho_111"
     data-name="Caminho 111"
     d="M113.31,534.989a13.17,13.17,0,0,1-4.172-25.836l-.075,5.424,2.985-5.905h0a13.173,13.173,0,1,1,1.23,26.318Z"
     transform="translate(-48.682 -164.405)"
     fill="#f2a0a0" />
  <path
     id="Caminho_112"
     data-name="Caminho 112"
     d="M143.2,515.1a13.17,13.17,0,1,1,5.82-24.606l-2.322,6.419,4.739-4.686a13.17,13.17,0,0,1-8.28,22.862Z"
     transform="translate(-46.599 -164.282)"
     fill="#f2a0a0" />
  <path
     id="Caminho_113"
     data-name="Caminho 113"
     d="M140.394,477.708c-3.038.332-5.991,1.273-9.051,1.466s-6.419-.546-8.323-2.91a42.233,42.233,0,0,1-2.439-4.279,9.372,9.372,0,0,0-3.316-3.124,13.17,13.17,0,1,0,24.606,8.751C141.389,477.622,140.886,477.654,140.394,477.708Z"
     transform="translate(-47.543 -163.879)"
     opacity="0.1" />
  <path
     id="Caminho_114"
     data-name="Caminho 114"
     d="M143.2,514.606a13.169,13.169,0,0,1-12.528-18.786,9.747,9.747,0,0,1,2.642,2.653,44.629,44.629,0,0,0,2.61,4.354c2.054,2.407,5.563,3.209,8.741,3.049s6.248-1.07,9.415-1.337c.439,0,.877-.064,1.327-.075A13.169,13.169,0,0,1,143.2,514.606Z"
     transform="translate(-46.595 -164.005)"
     opacity="0.1" />
  <path
     id="Caminho_115"
     data-name="Caminho 115"
     d="M113.31,534.48a13.17,13.17,0,0,1-12.635-18.54,10.7,10.7,0,0,1,2.792,2.675,44.112,44.112,0,0,0,2.856,4.44c2.215,2.471,5.959,3.349,9.318,3.21s6.419-.867,9.628-1.07A13.191,13.191,0,0,1,113.31,534.48Z"
     transform="translate(-48.682 -164.099)"
     opacity="0.1" />
  <path
     id="Caminho_116"
     data-name="Caminho 116"
     d="M120.114,557.868a13.17,13.17,0,0,1-24.863-5.349,12.838,12.838,0,0,1,.856-5.349A13.151,13.151,0,0,1,99,549.748c1.252,1.519,2.075,3.209,3.53,4.675,2.685,2.642,7.039,3.734,10.9,3.83a55.321,55.321,0,0,0,6.686-.385Z"
     transform="translate(-48.981 -164.225)"
     opacity="0.1" />
  <path
     id="Caminho_117"
     data-name="Caminho 117"
     d="M514.134,505.954c-2.792-5.167.374-11.5,4.023-16.112s8.077-9.414,7.981-15.288c-.128-8.452-9.094-13.437-16.261-17.909a79.166,79.166,0,0,1-14.592-11.768,21.161,21.161,0,0,1-4.493-6c-1.476-3.306-1.434-7.061-1.348-10.7q.481-18.069,1.787-36.117"
     transform="translate(-169.996 -166.735)"
     fill="none"
     stroke="#3f3d56"
     stroke-miterlimit="10"
     stroke-width="4" />
  <path
     id="Caminho_118"
     data-name="Caminho 118"
     d="M478.391,392.31a13.159,13.159,0,0,1,6.569-10.795l2.953,5.831-.086-7.061a13.5,13.5,0,0,1,4.333-.524,13.17,13.17,0,1,1-13.769,12.549Z"
     transform="translate(-165.708 -163.61)"
     fill="#f2a0a0" />
  <path
     id="Caminho_119"
     data-name="Caminho 119"
     d="M500.435,476.062a13.17,13.17,0,1,0-.631-10.6l8.227,6.7-9.051-2.14a13.1,13.1,0,0,0,1.455,6.045Z"
     transform="translate(-171.202 -164.085)"
     fill="#f2a0a0" />
  <path
     id="Caminho_120"
     data-name="Caminho 120"
     d="M507.24,452.629a13.17,13.17,0,0,0,4.183-25.836l.064,5.424-2.985-5.905h0a13.17,13.17,0,0,0-13.8,12.506,13.009,13.009,0,0,0,.567,4.493,13.159,13.159,0,0,0,11.971,9.318Z"
     transform="translate(-170.059 -163.897)"
     fill="#f2a0a0" />
  <path
     id="Caminho_121"
     data-name="Caminho 121"
     d="M477.362,432.718a13.17,13.17,0,1,0-5.831-24.606l2.332,6.419-4.793-4.59a13.062,13.062,0,0,0-4.279,9.094,12.74,12.74,0,0,0,.332,3.627,13.159,13.159,0,0,0,12.239,10.056Z"
     transform="translate(-162.091 -163.775)"
     fill="#f2a0a0" />
  <path
     id="Caminho_122"
     data-name="Caminho 122"
     d="M480.146,395.348c3.038.332,5.991,1.273,9.04,1.466s6.419-.546,8.334-2.91a42.147,42.147,0,0,0,2.428-4.279,9.4,9.4,0,0,1,3.327-3.124,13.17,13.17,0,1,1-24.606,8.741C479.151,395.251,479.644,395.294,480.146,395.348Z"
     transform="translate(-165.75 -163.447)"
     opacity="0.1" />
  <path
     id="Caminho_123"
     data-name="Caminho 123"
     d="M477.337,432.226a13.18,13.18,0,0,0,12.528-18.786,9.791,9.791,0,0,0-2.653,2.653,44.619,44.619,0,0,1-2.61,4.354c-2.043,2.407-5.552,3.21-8.73,3.049s-6.248-1.07-9.414-1.337c-.439,0-.888-.064-1.327-.075a13.159,13.159,0,0,0,12.207,10.142Z"
     transform="translate(-162.133 -163.577)"
     opacity="0.1" />
  <path
     id="Caminho_124"
     data-name="Caminho 124"
     d="M507.2,452.12a13.159,13.159,0,0,0,12.635-18.54,10.517,10.517,0,0,0-2.782,2.675,44.111,44.111,0,0,1-2.856,4.44c-2.225,2.471-5.959,3.349-9.329,3.21s-6.419-.867-9.628-1.07A13.159,13.159,0,0,0,507.2,452.12Z"
     transform="translate(-170.128 -163.673)"
     opacity="0.1" />
  <path
     id="Caminho_125"
     data-name="Caminho 125"
     d="M500.34,475.508a13.17,13.17,0,0,0,24.018-10.7,12.645,12.645,0,0,0-2.889,2.578c-1.252,1.519-2.14,3.209-3.53,4.675-2.7,2.642-7.039,3.734-10.912,3.83a57.71,57.71,0,0,1-6.686-.385Z"
     transform="translate(-171.371 -163.806)"
     opacity="0.1" />
  <circle
     style="fill:#03658c;fill-opacity:1"
     id="Elipse_42"
     data-name="Elipse 42"
     cx="106.94"
     cy="106.94"
     r="106.94"
     transform="translate(453.736 132.805)"
     fill="#3f3d56" />
  <path
     id="Caminho_126"
     data-name="Caminho 126"
     d="m 606.68,270.098 c -3.723,-3.723 -12.677,-9.34 -17.117,-11.436 -5.125,-2.461 -7.007,-2.418 -10.634,0.2 -3.017,2.14 -4.975,4.2 -8.441,3.445 -3.466,-0.755 -10.335,-5.938 -16.978,-12.56 -6.643,-6.622 -11.8,-13.448 -12.538,-16.967 -0.738,-3.519 1.294,-5.435 3.456,-8.452 2.61,-3.627 2.685,-5.51 0.2,-10.634 -2.14,-4.44 -7.692,-13.373 -11.447,-17.117 -3.755,-3.744 -4.568,-2.921 -6.622,-2.14 a 38.3,38.3 0 0 0 -6.066,3.21 c -3.723,2.493 -5.809,4.568 -7.275,7.692 -1.466,3.124 -3.124,8.922 5.4,24.1 a 134.466,134.466 0 0 0 23.644,31.533 v 0 a 134.667,134.667 0 0 0 31.635,23.686 c 15.17,8.559 20.979,6.858 24.1,5.4 3.121,-1.458 5.2,-3.52 7.681,-7.275 a 37.8,37.8 0 0 0 3.209,-6.066 c 0.713,-2.051 1.548,-2.886 -2.207,-6.619 z"
     fill="#f2a0a0" />
  <path
     id="Caminho_127"
     data-name="Caminho 127"
     d="M838.716,300.86A106.983,106.983,0,1,0,945.646,407.807,106.983,106.983,0,0,0,838.716,300.86Zm0,199.651a92.722,92.722,0,1,1,92.722-92.722,92.722,92.722,0,0,1-92.722,92.722Z"
     transform="translate(-278.028 -168.048)"
     opacity="0.1" />
  <circle
     style="fill:#03658c;fill-opacity:1"
     id="Elipse_43"
     data-name="Elipse 43"
     cx="106.94"
     cy="106.94"
     r="106.94"
     transform="translate(300.448 268.859)"
     fill="#3f3d56" />
  <path
     id="Caminho_128"
     data-name="Caminho 128"
     d="m 468.286,345.488 -32.02,32.576 a 0.578,0.578 0 0 0 0,0.834 l 22.466,23.889 a 3.866,3.866 0 1 1 -5.467,5.467 l -22.349,-23.8 a 0.61,0.61 0 0 0 -0.856,0 l -5.445,5.5 a 23.933,23.933 0 0 1 -17.117,7.2 24.456,24.456 0 0 1 -17.417,-7.4 l -5.232,-5.349 a 0.61,0.61 0 0 0 -0.856,0 l -22.3,23.75 a 3.866,3.866 0 1 1 -5.467,-5.467 l 22.381,-23.836 a 0.642,0.642 0 0 0 0,-0.834 l -32.014,-32.585 a 0.588,0.588 0 0 0 -1.006,0.417 v 65.183 a 9.543,9.543 0 0 0 9.511,9.511 h 104.7 a 9.543,9.543 0 0 0 9.515,-9.511 v -65.128 a 0.588,0.588 0 0 0 -1.027,-0.417 z"
     fill="#f2a0a0" />
  <path
     id="Caminho_129"
     data-name="Caminho 129"
     d="m 407.451,391.29 a 16.2,16.2 0 0 0 11.682,-4.814 l 46.637,-47.468 a 9.308,9.308 0 0 0 -5.884,-2.14 H 355.104 a 9.243,9.243 0 0 0 -5.884,2.14 l 46.645,47.468 a 16.133,16.133 0 0 0 11.586,4.814 z"
     fill="#f2a0a0" />
  <path
     id="Caminho_130"
     data-name="Caminho 130"
     d="M607.806,452.69A106.983,106.983,0,1,0,714.736,559.637,106.983,106.983,0,0,0,607.806,452.69Zm0,199.651a92.722,92.722,0,1,1,92.722-92.722,92.722,92.722,0,0,1-92.722,92.722Z"
     transform="translate(-201.239 -183.821)"
     opacity="0.1" />
  <circle
     style="fill:#03658c;fill-opacity:1"
     transform="translate(142.101 206.77)"
     id="Elipse_44"
     data-name="Elipse 44"
     cx="106.94"
     cy="106.94"
     r="106.94"
     fill="#3f3d56" />
  <path
     id="Caminho_131"
     data-name="Caminho 131"
     d="m 247.848,257.223 -42.633,98.36 3.98,3.98 38.664,-17.053 38.663,17.053 3.98,-3.98 z"
     fill="#f2a0a0" />
  <path
     id="Caminho_133"
     data-name="Caminho 133"
     d="M844.263,606.912q-1.455-3.552-2.985-7.082a21.021,21.021,0,0,0-3.648-6.3,6.674,6.674,0,0,0-2.14-1.6,9.124,9.124,0,0,0-2.792-.557,22.291,22.291,0,0,0-4.386-.118c-.567-.171-1.209-.4-1.84-.653a15.277,15.277,0,0,0,11.383-14.175c0-.214,0-.439,0-.653a15.245,15.245,0,0,0-15.181-15.309,14.977,14.977,0,0,0-7.97,2.279,14.3,14.3,0,0,0-16.048,7.735,17.685,17.685,0,0,0-5.456,13.159c0,.225,0,.46,0,.674.278,8.313,5.649,14.978,12.431,15.652a7.127,7.127,0,0,0-1.969,1.316c-2.075,2-2.418,5.178-2.642,8.066l-.16,2.14-3.595,1.284a.663.663,0,0,0-.16,1.166l3.434,2.45v.61a2.673,2.673,0,0,0,.064.7,4.911,4.911,0,0,0-1.326,1.894,8.75,8.75,0,0,0-.31,3.466l.128,2.985a23.436,23.436,0,0,0,.909,6.644c.449,1.327,2.4,4.525,3.8,4.547-1.294,5.884-1.637,18.294-1.637,18.294-.161.161.289.31,1.07.439.77,5.905,3.284,22.466,7.746,29.752a62.739,62.739,0,0,1,1.68,7.232s1.273,15.737,2.953,20.412c1.434,3.98,2.568,13.8,2.878,16.646a1.636,1.636,0,0,0-1.187,1.22c-.845,2.546-6.323,6.419-6.323,6.419a26.486,26.486,0,0,0-4.729,3.028c-1.722,1.551-1.658,2.953,5.991,2.075,14.764-1.7,17.288-6.419,17.288-6.419s-.235-.792-.588-1.819a19.752,19.752,0,0,0-1.936-4.568c-.214-.2-.428.139-.685.674a91.608,91.608,0,0,1-1.006-20.658s.417-7.232-1.69-12.335a23.353,23.353,0,0,1,0-8.077c.845-3.4-3.37-20-3.37-20l-2.418-12.217a3.51,3.51,0,0,1,.674,1.423l.064.246.064.353a.664.664,0,0,0,.171.332c1.648,6.847,6.162,25.815,6.162,28.6,0,3.4,4.215,11.907,4.215,11.907s1.68,14.036,4.632,19.556c2.247,4.2,2.3,10.367,2.193,13.084h0s-.5,3.5-1.348,4.343a10.337,10.337,0,0,0-1.594,2.771l-.1.2s-1.262,2.557-.417,2.985A20.723,20.723,0,0,0,842.68,744.4s1.69-2.14,1.69-2.974a13.383,13.383,0,0,0-.193-1.519c-.31-2.011-.888-5.178-.9-5.21.353-1.369-1.07-5.178-1.07-5.178l-.428-11.907a54.967,54.967,0,0,0-2.953-23.825s-2.14-7.649-1.68-9.778-.845-24.67-.845-24.67l-.128-.321a24.375,24.375,0,0,1,.128-4.782c.417-5.1-1.262-15.737-1.69-16.154a14.017,14.017,0,0,1-.6-3.52c.1-.888.385-3.488.781-6.719a120.788,120.788,0,0,0,12.431-1.07,1.551,1.551,0,0,0,1.07-.428,1.5,1.5,0,0,0,.246-.867C849.035,619.065,846.692,612.839,844.263,606.912ZM835.779,620.4c.439-3.049.909-6,1.38-8.195l.064.193a59.527,59.527,0,0,1,2.033,6.74A22.929,22.929,0,0,1,835.779,620.4Z"
     transform="translate(-256.156 -176.295)"
     fill="url(#linear-gradient)" />
  <path
     id="Caminho_134"
     data-name="Caminho 134"
     d="M802.37,648.734s2.525,22.712,7.992,31.539a61.213,61.213,0,0,1,1.68,7.146s1.262,15.555,2.942,20.177,2.942,17.246,2.942,17.246,5.884,6.719,7.992,1.262a88.605,88.605,0,0,1-1.262-21.867s.417-7.147-1.68-12.2a22.807,22.807,0,0,1,0-7.981c.834-3.37-3.37-19.76-3.37-19.76l-3.359-16.4Z"
     transform="translate(-251.498 -170.189)"
     fill="#be6f72" />
  <path
     id="Caminho_135"
     data-name="Caminho 135"
     d="M828.7,725.346s-2.525,4.622-17.235,6.3c-7.639.867-7.692-.513-5.97-2.054a26.634,26.634,0,0,1,4.707-3s5.467-3.776,6.3-6.3,3.787-.417,3.787-.417c4.2,6.3,5.049-1.69,5.884-.845a18.968,18.968,0,0,1,1.936,4.5C828.469,724.555,828.7,725.346,828.7,725.346Z"
     transform="translate(-252.212 -165.227)"
     fill="#ff6f61" />
  <path
     id="Caminho_136"
     data-name="Caminho 136"
     d="M828.7,725.048s-2.525,4.622-17.235,6.3c-7.639.867-7.692-.513-5.97-2.054,1.2.76,3.616,1.07,8.484-.888,7.007-2.867,12.089-4.525,14.133-5.167C828.469,724.256,828.7,725.048,828.7,725.048Z"
     transform="translate(-252.212 -164.929)"
     opacity="0.1" />
  <path
     id="Caminho_137"
     data-name="Caminho 137"
     d="M823.939,704.237s.417-7.146-1.68-12.2a22.806,22.806,0,0,1,0-7.981c.835-3.37-3.37-19.76-3.37-19.76l-3.359-16.4-2.91.171,3.327,16.229s4.2,16.39,3.37,19.76a22.8,22.8,0,0,0,0,7.981c2.14,5.05,1.68,12.2,1.68,12.2a88.6,88.6,0,0,0,1.262,21.867,3.681,3.681,0,0,1-1.22,1.733c1.562.706,3.209.674,4.162-1.733A88.609,88.609,0,0,1,823.939,704.237Z"
     transform="translate(-251.809 -170.189)"
     opacity="0.1" />
  <path
     id="Caminho_138"
     data-name="Caminho 138"
     d="M822.561,562.42a14.978,14.978,0,0,0-7.938,2.257,14.282,14.282,0,0,0-16.047,7.649,17.416,17.416,0,0,0-5.445,13.009c0,8.944,6.023,16.187,13.448,16.187,5.349,0,10.035-3.809,12.185-9.318a14.76,14.76,0,0,0,3.787.492,15.138,15.138,0,1,0,0-30.276Z"
     transform="translate(-253.675 -165.409)"
     fill="#3f3d56" />
  <path
     id="Caminho_139"
     data-name="Caminho 139"
     d="M833.342,650.65l1.262,3.359s1.262,22.285.834,24.392,1.69,9.628,1.69,9.628a53.821,53.821,0,0,1,2.942,23.536l.417,11.768s1.68,4.622.845,5.467-7.179-.749-7.179-.749.845-8.826-2.14-14.293-4.622-19.343-4.622-19.343-4.2-8.409-4.2-11.768-6.729-30.693-6.729-30.693Z"
     transform="translate(-255.592 -169.997)"
     fill="#be6f72" />
  <path
     id="Caminho_140"
     data-name="Caminho 140"
     d="M801.582,651.988s.428-15.138,2.14-19.76a31.374,31.374,0,0,0,1.872-6.708s25.451,4.6,27.559,2.921c0,0,.417,5.884.845,6.3s2.14,10.934,1.68,15.983,0,5.039,0,5.039-17.246,2.525-17.663,0-1.68-2.514-1.68-2.514S800.748,652.779,801.582,651.988Z"
     transform="translate(-253.636 -171.752)"
     fill="#3f3d56" />
  <g
     id="Grupo_90"
     data-name="Grupo 90"
     transform="translate(547.953 456.688)"
     opacity="0.1">
    <path
       id="Caminho_141"
       data-name="Caminho 141"
       d="M815.456,650.317s-10.634-.289-13.844-.867v.867c-.835.834,14.721,1.262,14.721,1.262a1.069,1.069,0,0,1,.578.235C816.344,650.317,815.456,650.317,815.456,650.317Z"
       transform="translate(-801.58 -626.77)" />
    <path
       id="Caminho_142"
       data-name="Caminho 142"
       d="M832.9,634.551c-.428-.417-.845-6.3-.845-6.3a1.808,1.808,0,0,1-.717.257c.15,1.776.439,4.5.717,4.782s2.14,10.934,1.68,15.983,0,5.039,0,5.039-13.64,2-16.946.663a5.079,5.079,0,0,0,.128.6c.417,2.525,17.663,0,17.663,0s-.428,0,0-5.039S833.319,634.979,832.9,634.551Z"
       transform="translate(-800.518 -628.25)" />
    <path
       id="Caminho_143"
       data-name="Caminho 143"
       d="M815.456,650.317s-10.634-.289-13.844-.867v.867c-.835.834,14.721,1.262,14.721,1.262a1.069,1.069,0,0,1,.578.235C816.344,650.317,815.456,650.317,815.456,650.317Z"
       transform="translate(-801.58 -626.77)" />
    <path
       id="Caminho_144"
       data-name="Caminho 144"
       d="M832.9,634.551c-.428-.417-.845-6.3-.845-6.3a1.808,1.808,0,0,1-.717.257c.15,1.776.439,4.5.717,4.782s2.14,10.934,1.68,15.983,0,5.039,0,5.039-13.64,2-16.946.663a5.079,5.079,0,0,0,.128.6c.417,2.525,17.663,0,17.663,0s-.428,0,0-5.039S833.319,634.979,832.9,634.551Z"
       transform="translate(-800.518 -628.25)" />
  </g>
  <path
     id="Caminho_145"
     data-name="Caminho 145"
     d="M819.491,587.462a5.574,5.574,0,0,0,1.6,2.075,3.6,3.6,0,0,0,1.508.653c-.941.546-1.969.952-2.91,1.5a51.737,51.737,0,0,0-4.279,3.21,8.707,8.707,0,0,1-4.911,1.9,6.012,6.012,0,0,0,.685-5.98,5.586,5.586,0,0,1-.749-2.075c0-1.209,1.07-2.14,2.065-2.782.8-.546,1.626-1.07,2.461-1.594.653-.407,1.637-1.262,2.461-1.23s.92.76,1.07,1.508A11.863,11.863,0,0,0,819.491,587.462Z"
     transform="translate(-251.146 -164.189)"
     fill="#be6f72" />
  <path
     id="Caminho_146"
     data-name="Caminho 146"
     d="M819.491,587.462a5.574,5.574,0,0,0,1.6,2.075,3.6,3.6,0,0,0,1.508.653c-.941.546-1.969.952-2.91,1.5a51.737,51.737,0,0,0-4.279,3.21,8.707,8.707,0,0,1-4.911,1.9,6.012,6.012,0,0,0,.685-5.98,5.586,5.586,0,0,1-.749-2.075c0-1.209,1.07-2.14,2.065-2.782.8-.546,1.626-1.07,2.461-1.594.653-.407,1.637-1.262,2.461-1.23s.92.76,1.07,1.508A11.863,11.863,0,0,0,819.491,587.462Z"
     transform="translate(-251.146 -164.189)"
     opacity="0.1" />
  <circle
     id="Elipse_45"
     data-name="Elipse 45"
     cx="9.671"
     cy="9.671"
     r="9.671"
     transform="translate(564.071 427.754)"
     fill="#be6f72" />
  <path
     id="Caminho_147"
     data-name="Caminho 147"
     d="M841.667,730.293c0,.845-1.68,2.942-1.68,2.942a20.819,20.819,0,0,1-10.089-1.262c-.845-.417.417-2.942.417-2.942l.1-.2a10.208,10.208,0,0,1,1.594-2.739c.834-.834,1.337-4.279,1.337-4.279,2.61-4.279,7.243,1.851,7.243,1.851s.588,3.209.9,5.157A14.661,14.661,0,0,1,841.667,730.293Z"
     transform="translate(-256.155 -165.134)"
     fill="#ff6f61" />
  <path
     id="Caminho_148"
     data-name="Caminho 148"
     d="M841.667,729.738c0,.845-1.68,2.942-1.68,2.942a20.819,20.819,0,0,1-10.089-1.262c-.845-.417.417-2.942.417-2.942l.1-.2a20.327,20.327,0,0,0,9.158,1.883l1.915-1.915C841.592,728.957,841.667,729.524,841.667,729.738Z"
     transform="translate(-256.155 -164.579)"
     opacity="0.1" />
  <circle
     id="Elipse_46"
     data-name="Elipse 46"
     cx="9.457"
     cy="9.457"
     r="9.457"
     transform="translate(551.016 409.205)"
     fill="#be6f72" />
  <path
     id="Caminho_149"
     data-name="Caminho 149"
     d="M803.1,600.305c-2.075,1.979-2.418,5.114-2.632,7.97l-.321,4.183a21.1,21.1,0,0,0-.075,3.391c0,.7.171,1.4.235,2.14s.086,1.669.1,2.514v6.184a7.3,7.3,0,0,0,.685,3.712,2.525,2.525,0,0,0,3.209,1.156,3.659,3.659,0,0,0,1.326-2.054,31.932,31.932,0,0,0,2.14-7.831c.086-.931.1-1.862.182-2.792s.246-1.9.385-2.846c.6-3.937.867-7.917,1.134-11.886.075-1.177,1.134-5.809-.406-6.323-.749-.246-2.3.524-3.017.781a8.494,8.494,0,0,0-2.942,1.7Z"
     transform="translate(-247.92 -165.388)"
     fill="#be6f72" />
  <path
     id="Caminho_150"
     data-name="Caminho 150"
     d="M803.1,600.305c-2.075,1.979-2.418,5.114-2.632,7.97l-.321,4.183a21.1,21.1,0,0,0-.075,3.391c0,.7.171,1.4.235,2.14s.086,1.669.1,2.514v6.184a7.3,7.3,0,0,0,.685,3.712,2.525,2.525,0,0,0,3.209,1.156,3.659,3.659,0,0,0,1.326-2.054,31.932,31.932,0,0,0,2.14-7.831c.086-.931.1-1.862.182-2.792s.246-1.9.385-2.846c.6-3.937.867-7.917,1.134-11.886.075-1.177,1.134-5.809-.406-6.323-.749-.246-2.3.524-3.017.781a8.494,8.494,0,0,0-2.942,1.7Z"
     transform="translate(-247.92 -165.388)"
     opacity="0.1" />
  <path
     id="Caminho_151"
     data-name="Caminho 151"
     d="M822.4,588.16s-7.146,5.467-11.351,6.729c0,0-2.493,2.846-2.921,3.53s-1.284,8.238-2.14,9.928-2.942,5.467,0,9.243c0,0,.834,3.787.417,5.05s-1.947,5.884-.556,6.1,5.606,3.145,9.382,2.311,17.877,3.21,17.877,3.21,2.332-21.664,4.022-25.494l-3.787-1.262s-10.506-6.3-4.2-15.973C829.13,591.53,823.224,590.268,822.4,588.16Z"
     transform="translate(-254.076 -166.017)"
     fill="#ff6f61" />
  <path
     id="Caminho_152"
     data-name="Caminho 152"
     d="M796.858,612.008l8.687,6.152a.642.642,0,0,0,.76,0l2.354-1.765a.663.663,0,0,0,0-1.006l-6.686-5.938a.642.642,0,0,0-.653-.128l-4.29,1.54a.653.653,0,0,0-.171,1.145Z"
     transform="translate(-247.538 -164.052)"
     fill="#3f3d56" />
  <path
     id="Caminho_153"
     data-name="Caminho 153"
     d="M799.641,630.231a23.285,23.285,0,0,1-.909-6.558l-.128-2.964a8.557,8.557,0,0,1,.31-3.423,5.6,5.6,0,0,1,3.605-3.156,12.451,12.451,0,0,1,4.91-.353,1.263,1.263,0,0,1,.631.171,1.177,1.177,0,0,1,.342.578,3.873,3.873,0,0,1,.193,3.092,3.208,3.208,0,0,1-.984,1.016c-1.166.834-2.525,1.391-3.627,2.3a1.316,1.316,0,0,0-.492.621,1.445,1.445,0,0,0,0,.674,10.781,10.781,0,0,0,.556,1.722,1.7,1.7,0,0,0,.482.727c.2.171.471.235.685.4.46.374,1.423.867,1.369,1.455-.161,2.14-1.444,4.536-1.947,6.654C803.675,637.324,800.262,632.039,799.641,630.231Z"
     transform="translate(-247.621 -164.746)"
     fill="#be6f72" />
  <g
     id="Grupo_91"
     data-name="Grupo 91"
     transform="translate(557.688 441.837)"
     opacity="0.1">
    <path
       id="Caminho_154"
       data-name="Caminho 154"
       d="M812.216,628.257h-.235a7.2,7.2,0,0,0,2.749,0H815a9.632,9.632,0,0,0-2.782,0Z"
       transform="translate(-811.98 -605.341)" />
    <path
       id="Caminho_155"
       data-name="Caminho 155"
       d="M833.1,606.83c-1.508,3.391-3.734,21.76-4.13,25.408,1.476.385,2.45.663,2.45.663s2.311-21.611,4-25.441Z"
       transform="translate(-810.794 -606.83)" />
  </g>
  <path
     id="Caminho_156"
     data-name="Caminho 156"
     d="M829.573,602.363a3.21,3.21,0,0,0,1.38,2.086,18.516,18.516,0,0,1,2.45,2.482,17.575,17.575,0,0,1,2.429,4.868,59.619,59.619,0,0,1,2.022,6.654c-5.349,2.482-11.426,2.364-17.117,4a13.662,13.662,0,0,0-6.419,3.8,8.847,8.847,0,0,0-2.364,6.965.909.909,0,0,0,.128.417.9.9,0,0,0,.749.3,6.419,6.419,0,0,0,3.926-1.348,18.689,18.689,0,0,0,3.006-2.953,4.836,4.836,0,0,1,2.14-1.583c3.092-.941,6.419-.888,9.628-.941a121.325,121.325,0,0,0,14.346-1.134,1.155,1.155,0,0,0,1.284-1.284c.471-6.312-1.872-12.474-4.279-18.326q-1.444-3.52-2.974-7.007a20.756,20.756,0,0,0-3.637-6.227,6.418,6.418,0,0,0-2.14-1.583,9.048,9.048,0,0,0-2.867-.535,20.331,20.331,0,0,0-4.7-.086,10.005,10.005,0,0,0-.449,2.428c.086,2.889,1.348,5.6,2.589,8.206C828.867,601.956,829.327,601.978,829.573,602.363Z"
     transform="translate(-256.673 -165.865)"
     fill="#be6f72" />
  <path
     id="Caminho_157"
     data-name="Caminho 157"
     d="M812.48,606.67a7.841,7.841,0,0,0-1.07,4.087,5.5,5.5,0,0,0,.268,1.669,5.413,5.413,0,0,0,3.413,3.21"
     transform="translate(-249.568 -164.04)"
     fill="none"
     stroke="#000"
     stroke-miterlimit="10"
     stroke-width="1"
     opacity="0.1" />
  <path
     id="Caminho_158"
     data-name="Caminho 158"
     d="M818.764,574.04a4.91,4.91,0,0,0-1.551.246c-1.4-2.14-4.7-3.616-8.559-3.616-5.114,0-9.254,2.642-9.254,5.895s4.14,5.884,9.254,5.884a13.019,13.019,0,0,0,5.552-1.177,5.039,5.039,0,1,0,4.536-7.232Z"
     transform="translate(-250.891 -164.121)"
     fill="#3f3d56" />
  <path
     id="Caminho_159"
     data-name="Caminho 159"
     d="M819.183,582.6a5.029,5.029,0,0,1-4.537-2.857,13.02,13.02,0,0,1-5.552,1.178c-5.1,0-9.243-2.632-9.243-5.884a3.533,3.533,0,0,1,0-.588,3.991,3.991,0,0,0-.471,1.851c0,3.21,4.14,5.884,9.254,5.884a13.02,13.02,0,0,0,5.552-1.177,5.039,5.039,0,0,0,9.489-1.252,5.017,5.017,0,0,1-4.493,2.846Z"
     transform="translate(-250.866 -163.934)"
     opacity="0.1" />
  <path
     id="Caminho_160"
     data-name="Caminho 160"
     d="M798.589,574.809a14.282,14.282,0,0,1,16.047-7.649,15.127,15.127,0,0,1,23.023,11.618v-1.262a15.127,15.127,0,0,0-23.076-12.838,14.282,14.282,0,0,0-16.047,7.649,17.417,17.417,0,0,0-5.445,13.009V586.6A17.117,17.117,0,0,1,798.589,574.809Z"
     transform="translate(-253.667 -164.624)"
     opacity="0.1" />
  <path
     id="Caminho_161"
     data-name="Caminho 161"
     d="M889.174,584.435c2.792-5.167-.374-11.511-4.023-16.122s-8.077-9.4-7.981-15.288c.128-8.441,9.094-13.426,16.261-17.909a79.062,79.062,0,0,0,14.592-11.768,21.321,21.321,0,0,0,4.493-6c1.476-3.306,1.434-7.061,1.348-10.7q-.471-18.08-1.787-36.117"
     transform="translate(-274.6 -168.261)"
     fill="none"
     stroke="#3f3d56"
     stroke-miterlimit="10"
     stroke-width="4" />
  <path
     id="Caminho_162"
     data-name="Caminho 162"
     d="M924.238,470.749a13.148,13.148,0,0,0-6.569-10.784l-2.953,5.831.086-7.061a12.923,12.923,0,0,0-4.333-.524,13.17,13.17,0,1,0,13.769,12.538Z"
     transform="translate(-277.591 -164.094)"
     fill="#f2a0a0" />
  <path
     id="Caminho_163"
     data-name="Caminho 163"
     d="M902.194,554.513a13.17,13.17,0,1,1,.631-10.613l-8.227,6.7,9.051-2.14a13.094,13.094,0,0,1-1.455,6.055Z"
     transform="translate(-272.097 -164.569)"
     fill="#f2a0a0" />
  <path
     id="Caminho_164"
     data-name="Caminho 164"
     d="M895.391,531.068a13.17,13.17,0,0,1-4.183-25.836l-.064,5.424,2.985-5.895h0a13.173,13.173,0,1,1,1.23,26.318Z"
     transform="translate(-273.233 -164.38)"
     fill="#f2a0a0" />
  <path
     id="Caminho_165"
     data-name="Caminho 165"
     d="M925.273,511.188a13.17,13.17,0,1,1,5.831-24.606L928.772,493l4.793-4.6a13.1,13.1,0,0,1,4.279,9.094,12.711,12.711,0,0,1-.332,3.627A13.169,13.169,0,0,1,925.273,511.188Z"
     transform="translate(-281.219 -164.258)"
     fill="#f2a0a0" />
  <path
     id="Caminho_166"
     data-name="Caminho 166"
     d="M922.474,473.788c-3.038.342-6,1.284-9.051,1.476s-6.419-.546-8.334-2.921a40.892,40.892,0,0,1-2.429-4.279,9.468,9.468,0,0,0-3.316-3.124,13.17,13.17,0,1,0,24.606,8.74C923.458,473.7,922.966,473.734,922.474,473.788Z"
     transform="translate(-277.516 -163.858)"
     opacity="0.1" />
  <path
     id="Caminho_167"
     data-name="Caminho 167"
     d="M925.27,510.7a13.18,13.18,0,0,1-12.528-18.786,9.747,9.747,0,0,1,2.653,2.643,42.2,42.2,0,0,0,2.61,4.354c2.043,2.418,5.552,3.209,8.73,3.06s6.248-1.07,9.414-1.337c.439,0,.888-.075,1.327-.086A13.17,13.17,0,0,1,925.27,510.7Z"
     transform="translate(-281.123 -163.984)"
     opacity="0.1" />
  <path
     id="Caminho_168"
     data-name="Caminho 168"
     d="M895.391,530.561A13.159,13.159,0,0,1,882.756,512a10.857,10.857,0,0,1,2.782,2.675c1.07,1.444,1.658,3.113,2.856,4.44,2.225,2.482,5.959,3.349,9.329,3.274s6.419-.877,9.628-1.123a13.17,13.17,0,0,1-11.961,9.3Z"
     transform="translate(-273.097 -164.079)"
     opacity="0.1" />
  <path
     id="Caminho_169"
     data-name="Caminho 169"
     d="M902.189,553.958a13.18,13.18,0,0,1-24.018-10.7,12.9,12.9,0,0,1,2.889,2.578c1.263,1.53,2.086,3.21,3.531,4.686,2.7,2.642,7.039,3.723,10.912,3.83a57.709,57.709,0,0,0,6.687-.4Z"
     transform="translate(-271.745 -164.197)"
     opacity="0.1" />
  <path
     id="Caminho_170"
     data-name="Caminho 170"
     d="M1048.174,736.435c2.792-5.167-.374-11.511-4.022-16.122s-8.077-9.4-7.981-15.288c.128-8.441,9.094-13.426,16.261-17.909a79.069,79.069,0,0,0,14.593-11.768,21.323,21.323,0,0,0,4.493-6c1.476-3.306,1.433-7.061,1.348-10.7q-.46-18.08-1.787-36.117"
     transform="translate(-343.809 -171.961)"
     fill="none"
     stroke="#3f3d56"
     stroke-miterlimit="10"
     stroke-width="4" />
  <path
     id="Caminho_171"
     data-name="Caminho 171"
     d="M1083.235,622.749a13.148,13.148,0,0,0-6.569-10.784l-2.953,5.831.086-7.061a12.921,12.921,0,0,0-4.279-.524,13.17,13.17,0,1,0,13.769,12.538Z"
     transform="translate(-342.357 -165.03)"
     fill="#f2a0a0" />
  <path
     id="Caminho_172"
     data-name="Caminho 172"
     d="M1061.194,706.513a13.17,13.17,0,1,1,.631-10.613l-8.227,6.7,9.051-2.14a13.093,13.093,0,0,1-1.455,6.055Z"
     transform="translate(-343.799 -167.437)"
     fill="#f2a0a0" />
  <path
     id="Caminho_173"
     data-name="Caminho 173"
     d="M1054.391,683.068a13.17,13.17,0,0,1-4.183-25.836l-.064,5.424,2.985-5.895h0a13.173,13.173,0,1,1,1.23,26.318Z"
     transform="translate(-343.5 -169.572)"
     fill="#f2a0a0" />
  <path
     id="Caminho_174"
     data-name="Caminho 174"
     d="M1084.273,663.188a13.17,13.17,0,1,1,5.831-24.606L1087.772,645l4.793-4.6a13.1,13.1,0,0,1,4.279,9.094,12.725,12.725,0,0,1-.332,3.627A13.17,13.17,0,0,1,1084.273,663.188Z"
     transform="translate(-341.417 -170.96)"
     fill="#f2a0a0" />
  <path
     id="Caminho_175"
     data-name="Caminho 175"
     d="M1081.474,625.788c-3.038.342-6,1.284-9.051,1.476s-6.419-.546-8.334-2.921a40.838,40.838,0,0,1-2.428-4.279,9.469,9.469,0,0,0-3.317-3.124,13.17,13.17,0,1,0,24.606,8.741C1082.458,625.7,1081.966,625.734,1081.474,625.788Z"
     transform="translate(-342.361 -164.655)"
     opacity="0.1" />
  <path
     id="Caminho_176"
     data-name="Caminho 176"
     d="M1084.27,662.7a13.18,13.18,0,0,1-12.528-18.786,9.747,9.747,0,0,1,2.653,2.643,42.232,42.232,0,0,0,2.61,4.354c2.043,2.418,5.552,3.209,8.73,3.06s6.248-1.07,9.414-1.337c.439,0,.888-.075,1.327-.086A13.169,13.169,0,0,1,1084.27,662.7Z"
     transform="translate(-341.413 -170.468)"
     opacity="0.1" />
  <path
     id="Caminho_177"
     data-name="Caminho 177"
     d="M1054.391,682.562A13.159,13.159,0,0,1,1041.756,664a10.859,10.859,0,0,1,2.781,2.675c1.07,1.444,1.658,3.113,2.857,4.44,2.225,2.482,5.959,3.349,9.329,3.274s6.419-.877,9.629-1.123A13.169,13.169,0,0,1,1054.391,682.562Z"
     transform="translate(-343.5 -169.065)"
     opacity="0.1" />
  <path
     id="Caminho_178"
     data-name="Caminho 178"
     d="M1061.189,705.958a13.18,13.18,0,0,1-24.018-10.7,12.9,12.9,0,0,1,2.889,2.578c1.262,1.53,2.14,3.21,3.53,4.686,2.7,2.642,7.04,3.723,10.912,3.83a57.711,57.711,0,0,0,6.687-.4Z"
     transform="translate(-343.794 -166.882)"
     opacity="0.1" />
  <path
     id="Caminho_179"
     data-name="Caminho 179"
     d="M539.362,589.871a10.5,10.5,0,0,0-4.183-8.473A12.3,12.3,0,0,0,524.9,569.33a12.282,12.282,0,0,0-8.184-9.147h0a10.44,10.44,0,0,0-1.519-.353h-1.808a12.046,12.046,0,0,0-11.64,10.292c-3.755-.867-7.189.257-7.82,2.632a3.209,3.209,0,0,0,.107,1.9c.642,1.84,2.728,3.605,5.52,4.472l.364.107.546.139h.118a9.459,9.459,0,0,0-.9,4.055,9.351,9.351,0,0,0,5.039,8.345l-.246.15a3.339,3.339,0,0,0-.813,1.134,16.967,16.967,0,0,0-1.573,3.787c-.267,1.134-.31,2.311-.642,3.434-.621,2.065-2.2,3.809-2.386,5.959-.086.963.075,2.14-.61,2.76a3.332,3.332,0,0,1-.546.385,4.417,4.417,0,0,0-1.188,1.252,4.152,4.152,0,0,1-.834,1.2c-.62.46-1.637.417-1.936,1.134s.481,1.562.3,2.343-.845.931-1.327,1.369a4.76,4.76,0,0,0-1.145,2.14A7.018,7.018,0,0,1,486,617.344a10.8,10.8,0,0,1,.6,2.14,9.373,9.373,0,0,0-3.113-1.562,9.83,9.83,0,0,1-3.317-2.461l1.776-.246L474.1,603.244l-2.322-.481,2.075,3.99a1.273,1.273,0,0,0-.706.845,3.626,3.626,0,0,0-.075,1.359,24.317,24.317,0,0,0,.535,3.21l.6,2.8c.053.257.118.524.193.781a7.369,7.369,0,0,0-2.322.257,20.2,20.2,0,0,0-4.825-1.145,2.672,2.672,0,0,0-1.07,0,2.771,2.771,0,0,0-1.016.824,32.907,32.907,0,0,0-3.584,5.049c-4.279,7.339-9.853,13.747-15.127,20.38-3.637,1.476-7.307,2.878-10.976,4.279l-7.9,3.017a11.971,11.971,0,0,1-4.9,1.07c-.749,0-1.68-.161-2.14.481a4.507,4.507,0,0,0-.481,1.07l-.813.086h0a9.35,9.35,0,0,0-1.894-3.488,1.2,1.2,0,0,0-.888.685c-.193.353-.31.738-.535,1.07-.417.62-1.155.92-1.68,1.444s-.856,1.337-1.434,1.872a5.67,5.67,0,0,1-2.685,1.07,16.946,16.946,0,0,0-4.2,1.594,6.775,6.775,0,0,1-1.551.717,5.829,5.829,0,0,1-1.829.064l-4.172-.31a3.294,3.294,0,0,0-1.123.053,2.14,2.14,0,0,0-1.327,2.14,3.37,3.37,0,0,0,1.327,2.3,8.493,8.493,0,0,0,2.375,1.23,69.695,69.695,0,0,0,11.126,3.3v.845a18.99,18.99,0,0,0,8.559,2.033,1.327,1.327,0,0,0,.642-.118,1.412,1.412,0,0,0,.535-.834,34.417,34.417,0,0,0,1.669-8.195h0a4.278,4.278,0,0,0,1.508-.385c1.434-.4,2.867.588,4.354.749,1.829.2,3.52-.867,5.253-1.519l.749-.246a8.214,8.214,0,0,1-1.733,1.658c-.717.513-1.519.9-2.215,1.434a15.241,15.241,0,0,1-1.883,1.455,11.806,11.806,0,0,1-1.444.556,9.525,9.525,0,0,0-2.065,1.07,4.182,4.182,0,0,0-1.4,1.369,2.054,2.054,0,0,0-.118,1.926,2.032,2.032,0,0,0,1.38.963,5.66,5.66,0,0,0,1.7,0c2.268-.171,4.525-.374,6.783-.578a18.092,18.092,0,0,0,2.835-.407c.492-.118.984-.278,1.476-.417a13.171,13.171,0,0,1,2.578-.385,2.14,2.14,0,0,1,.749.075c.524.171.9.706,1.434.813a2.139,2.139,0,0,0,1.07-.139,23.862,23.862,0,0,1,5.018-.535,2.071,2.071,0,0,0,1.947-.867c.342-.685-.278-1.787-.556-2.7a8.248,8.248,0,0,1-.235-1.776,11.117,11.117,0,0,0-1.241-4.215,11.006,11.006,0,0,1-.931-1.926,48.658,48.658,0,0,0,9.233-4.686,16.508,16.508,0,0,1,5.264-2.535,14.315,14.315,0,0,1,6.612.77,150.425,150.425,0,0,1,15.16,5.285c2.364.974,4.718,2,7.157,2.739a11.158,11.158,0,0,0,2.546,2.471,11.77,11.77,0,0,0,5.51,1.508,72.217,72.217,0,0,0,7.756.289,13.082,13.082,0,0,0,5.777-1.07,5.937,5.937,0,0,0,1.209-.8,4.793,4.793,0,0,0,3.809-1.4,9.233,9.233,0,0,0,2.9-4.579c.631-2.439.15-5.349,1.647-7.3.4-.535.92-.963,1.316-1.5a4.215,4.215,0,0,0,.685-2.471.5.5,0,0,1,.064-.1,9.06,9.06,0,0,0,.642-2.461,14.06,14.06,0,0,1,.7-1.947,60.11,60.11,0,0,0,1.99-5.766,33.7,33.7,0,0,0,.92-3.958c.161-1.07.257-2.14.342-3.209a19.935,19.935,0,0,1,.973-4.953,40.313,40.313,0,0,0,2.247-11.854v-.235a7.949,7.949,0,0,0,7.039-8.088,8.44,8.44,0,0,0-.738-3.455,10.7,10.7,0,0,0,1.434-5.392Zm-38.278,46.505c.118.417.257.824.4,1.23-.631-.61-1.241-1.241-1.872-1.861.246.086.5.16.738.257a3.988,3.988,0,0,1,.706.374Zm-3.028-2.054c-3.7-3.21-7.981-5.7-11.768-8.815,2.065,1.016,4.076,2.2,6.066,3.338q3.541,2.022,7.179,3.883a5.874,5.874,0,0,1-1.509,1.594Zm1.573-8.088.182-.182v1.273l-.995-.342a8.866,8.866,0,0,0,.781-.749ZM467.074,634.9a30.626,30.626,0,0,0,3.937-5.617c1.466,2.557,3.851,4.408,5.873,6.558C473.621,635.424,470.348,635.071,467.074,634.9Z"
     transform="translate(-156.888 -176.339)"
     fill="url(#linear-gradient-2)" />
  <path
     id="Caminho_180"
     data-name="Caminho 180"
     d="M415.35,438.25l2.332.471,7.949,11.757-3.5.471Z"
     transform="translate(-108.836 -1.588)"
     fill="#2f2e41" />
  <path
     id="Caminho_181"
     data-name="Caminho 181"
     d="M414.49,645.468a45.762,45.762,0,0,0,2.332,6.066,57.758,57.758,0,0,0,7.756-2.215,24.443,24.443,0,0,0-1.615-2.14,7.98,7.98,0,0,0-2.193-1.68,6.033,6.033,0,0,0-2.664,0C416.908,645.468,415.7,645.489,414.49,645.468Z"
     transform="translate(-146.965 -170.367)"
     fill="#fbbebe" />
  <path
     id="Caminho_182"
     data-name="Caminho 182"
     d="M422.085,648.822a4.836,4.836,0,0,1-2.653-3.017,9.715,9.715,0,0,0-2.022-3.605,1.155,1.155,0,0,0-.9.674c-.193.342-.31.727-.524,1.07-.428.61-1.177.909-1.712,1.423s-.856,1.316-1.434,1.84a5.691,5.691,0,0,1-2.707,1.07,17.551,17.551,0,0,0-4.279,1.573,7.381,7.381,0,0,1-1.573.706,6.223,6.223,0,0,1-1.84,0l-4.215-.3a3.294,3.294,0,0,0-1.07,0,2.043,2.043,0,0,0-1.337,2.14,3.21,3.21,0,0,0,1.337,2.268,8.881,8.881,0,0,0,2.4,1.22,70.514,70.514,0,0,0,11.3,3.21v.834a19.556,19.556,0,0,0,8.612,2,1.455,1.455,0,0,0,.642-.107,1.412,1.412,0,0,0,.535-.835,33.379,33.379,0,0,0,1.765-9.158,7.3,7.3,0,0,0-.182-2.364c-.235-.76.556-.439-.171-.738"
     transform="translate(-143.717 -170.588)"
     fill="#2f2e41" />
  <path
     id="Caminho_183"
     data-name="Caminho 183"
     d="M501.346,633.758c-12.5.749-24.841-2.91-37.358-3.3a18.234,18.234,0,0,0-4.643.289,23.39,23.39,0,0,0-4.6,1.786c-6.708,3.124-13.651,5.713-20.583,8.291l-7.97,2.963a12.067,12.067,0,0,1-4.932,1.07c-.76,0-1.69-.16-2.14.471-1.294,1.926-.685,4.739.171,6.9.278.7.749,1.455,1.5,1.53a4.354,4.354,0,0,0,1.519-.385c1.444-.385,2.889.588,4.386.749,1.84.193,3.552-.856,5.3-1.5,2.889-1.07,6.034-1.07,9.072-1.541,5.082-.845,9.8-3.209,14.207-5.895a16.583,16.583,0,0,1,5.3-2.5,14.657,14.657,0,0,1,6.665.76,152.981,152.981,0,0,1,15.288,5.2,71.231,71.231,0,0,0,7.981,2.921,28.885,28.885,0,0,0,17.9-1.07c2-.792,4.172-2.14,4.279-4.343.075-1.23-.888-2.311-1.519-3.37-.406-.674-.824-1.348-1.262-2C507.754,637.684,505.144,633.533,501.346,633.758Z"
     transform="translate(-157.477 -171.41)"
     fill="#2f2e41" />
  <path
     id="Caminho_184"
     data-name="Caminho 184"
     d="M501.346,633.758c-12.5.749-24.841-2.91-37.358-3.3a18.234,18.234,0,0,0-4.643.289,23.39,23.39,0,0,0-4.6,1.786c-6.708,3.124-13.651,5.713-20.583,8.291l-7.97,2.963a12.067,12.067,0,0,1-4.932,1.07c-.76,0-1.69-.16-2.14.471-1.294,1.926-.685,4.739.171,6.9.278.7.749,1.455,1.5,1.53a4.354,4.354,0,0,0,1.519-.385c1.444-.385,2.889.588,4.386.749,1.84.193,3.552-.856,5.3-1.5,2.889-1.07,6.034-1.07,9.072-1.541,5.082-.845,9.8-3.209,14.207-5.895a16.583,16.583,0,0,1,5.3-2.5,14.657,14.657,0,0,1,6.665.76,152.981,152.981,0,0,1,15.288,5.2,71.231,71.231,0,0,0,7.981,2.921,28.885,28.885,0,0,0,17.9-1.07c2-.792,4.172-2.14,4.279-4.343.075-1.23-.888-2.311-1.519-3.37-.406-.674-.824-1.348-1.262-2C507.754,637.684,505.144,633.533,501.346,633.758Z"
     transform="translate(-157.477 -171.41)"
     opacity="0.1" />
  <path
     id="Caminho_185"
     data-name="Caminho 185"
     d="M436.92,646.34q2.931.995,5.916,1.84c1.07-1.829,3.21-3.1,3.67-5.2a.492.492,0,0,0,0-.278.514.514,0,0,0-.225-.2,11.212,11.212,0,0,0-4.643-1.359c-1.284-.075-1.872,1.262-2.45,2.2C438.963,643.761,437.444,646.543,436.92,646.34Z"
     transform="translate(-152.788 -170.662)"
     fill="#fbbebe" />
  <path
     id="Caminho_186"
     data-name="Caminho 186"
     d="M440.741,644.974a4.279,4.279,0,0,1-2.878-1.894c-.267-.481-.567-1.134-1.123-1.07s-.738.642-.856,1.145a32.091,32.091,0,0,1-1.615,5.553,10.42,10.42,0,0,1-3.456,4.547c-.728.5-1.53.877-2.247,1.412a15.432,15.432,0,0,1-1.894,1.433,11.231,11.231,0,0,1-1.455.535,10.09,10.09,0,0,0-2.076,1.07,4.12,4.12,0,0,0-1.423,1.359,1.958,1.958,0,0,0-.107,1.894,2.022,2.022,0,0,0,1.38.942,5.822,5.822,0,0,0,1.722,0c2.279-.161,4.557-.364,6.836-.567a19.721,19.721,0,0,0,2.856-.4l1.487-.406a11.837,11.837,0,0,1,2.6-.385,2.022,2.022,0,0,1,.76.075c.524.171.9.7,1.444.8a2.417,2.417,0,0,0,1.07-.139,23.622,23.622,0,0,1,5.06-.524,2.136,2.136,0,0,0,1.968-.856c.428-.835-.278-1.765-.567-2.664a8.559,8.559,0,0,1-.235-1.744,10.633,10.633,0,0,0-1.252-4.151c-.578-1.07-1.369-2.247-.963-3.381a3.21,3.21,0,0,0,.385-1.166C446,644.557,441.79,645.209,440.741,644.974Z"
     transform="translate(-150.646 -170.601)"
     fill="#2f2e41" />
  <path
     id="Caminho_187"
     data-name="Caminho 187"
     d="M479.107,615.517a9.757,9.757,0,0,1-4.985-4.943c-.2-.471-.374-.974-.578-1.444a10.977,10.977,0,0,0-2.974-4.14,1.465,1.465,0,0,0-1.07-.46,1.166,1.166,0,0,0-.8.867,3.306,3.306,0,0,0-.086,1.337,23.825,23.825,0,0,0,.535,3.124l.61,2.76a6.057,6.057,0,0,0,.374,1.23,4.279,4.279,0,0,0,1.016,1.209c.556.513,1.123,1.006,1.69,1.5a5.8,5.8,0,0,0,1.07.738,6.216,6.216,0,0,0,1.894.556,16.113,16.113,0,0,1,7.1,2.739s0-1.851,0-2.054a2.717,2.717,0,0,0-.535-1.487,9.488,9.488,0,0,0-3.263-1.53Z"
     transform="translate(-161.641 -164.418)"
     fill="#fbbebe" />
  <path
     id="Caminho_188"
     data-name="Caminho 188"
     d="M479.107,615.517a9.757,9.757,0,0,1-4.985-4.943c-.2-.471-.374-.974-.578-1.444a10.977,10.977,0,0,0-2.974-4.14,1.465,1.465,0,0,0-1.07-.46,1.166,1.166,0,0,0-.8.867,3.306,3.306,0,0,0-.086,1.337,23.825,23.825,0,0,0,.535,3.124l.61,2.76a6.057,6.057,0,0,0,.374,1.23,4.279,4.279,0,0,0,1.016,1.209c.556.513,1.123,1.006,1.69,1.5a5.8,5.8,0,0,0,1.07.738,6.216,6.216,0,0,0,1.894.556,16.113,16.113,0,0,1,7.1,2.739s0-1.851,0-2.054a2.717,2.717,0,0,0-.535-1.487,9.488,9.488,0,0,0-3.263-1.53Z"
     transform="translate(-161.641 -164.418)"
     opacity="0.1" />
  <ellipse
     id="Elipse_47"
     data-name="Elipse 47"
     cx="3.038"
     cy="3.06"
     rx="3.038"
     ry="3.06"
     transform="translate(330.672 425.516)"
     fill="#2f2e41" />
  <path
     id="Caminho_189"
     data-name="Caminho 189"
     d="M501.812,590.486a3.284,3.284,0,0,0-2.4.342,3.329,3.329,0,0,0-.824,1.123,16.317,16.317,0,0,0-1.583,3.723c-.267,1.07-.31,2.279-.653,3.381-.62,2.033-2.215,3.755-2.4,5.873-.086.952.075,2.065-.62,2.707a3.935,3.935,0,0,1-.546.4,4.11,4.11,0,0,0-1.2,1.23,4.033,4.033,0,0,1-.845,1.166c-.62.46-1.648.417-1.947,1.07s.481,1.541.3,2.311-.856.92-1.337,1.348a4.674,4.674,0,0,0-1.155,2.14,7.136,7.136,0,0,1-5.82-1.444,18.528,18.528,0,0,1,.909,6.654,2.717,2.717,0,0,1-.535,2.054A37.054,37.054,0,0,1,488.3,625.8a4.921,4.921,0,0,0,3.113,0,5.2,5.2,0,0,0,1.434-1.134c1.284-1.305,2.632-2.728,2.942-4.536a26.667,26.667,0,0,0,.053-3.07,17.306,17.306,0,0,1,.781-3.734,44.429,44.429,0,0,0,1.359-7.681c.139-1.6,1.53-2.888,2.257-4.279,1.369-2.707,2.782-5.52,2.878-8.559C503.16,591.823,502.818,590.593,501.812,590.486Z"
     transform="translate(-165.849 -165.431)"
     fill="#2f2e41" />
  <path
     id="Caminho_190"
     data-name="Caminho 190"
     d="M501.812,590.486a3.284,3.284,0,0,0-2.4.342,3.329,3.329,0,0,0-.824,1.123,16.317,16.317,0,0,0-1.583,3.723c-.267,1.07-.31,2.279-.653,3.381-.62,2.033-2.215,3.755-2.4,5.873-.086.952.075,2.065-.62,2.707a3.935,3.935,0,0,1-.546.4,4.11,4.11,0,0,0-1.2,1.23,4.033,4.033,0,0,1-.845,1.166c-.62.46-1.648.417-1.947,1.07s.481,1.541.3,2.311-.856.92-1.337,1.348a4.674,4.674,0,0,0-1.155,2.14,7.136,7.136,0,0,1-5.82-1.444,18.528,18.528,0,0,1,.909,6.654,2.717,2.717,0,0,1-.535,2.054A37.054,37.054,0,0,1,488.3,625.8a4.921,4.921,0,0,0,3.113,0,5.2,5.2,0,0,0,1.434-1.134c1.284-1.305,2.632-2.728,2.942-4.536a26.667,26.667,0,0,0,.053-3.07,17.306,17.306,0,0,1,.781-3.734,44.429,44.429,0,0,0,1.359-7.681c.139-1.6,1.53-2.888,2.257-4.279,1.369-2.707,2.782-5.52,2.878-8.559C503.16,591.823,502.818,590.593,501.812,590.486Z"
     transform="translate(-165.849 -165.431)"
     opacity="0.1" />
  <path
     id="Caminho_191"
     data-name="Caminho 191"
     d="M501.853,637.68c-2.6-1.241-4.5-3.541-6.612-5.52-4.012-3.777-8.922-6.419-13.148-9.982-2.8-2.343-5.349-5.071-8.377-7.039A20.936,20.936,0,0,0,464.74,612a2.387,2.387,0,0,0-1.07,0,2.461,2.461,0,0,0-1.016.8,32.336,32.336,0,0,0-3.627,4.975c-5.349,9.094-12.956,16.732-19.257,25.184a1.605,1.605,0,0,0-.31.6,1.487,1.487,0,0,0,.235.931l1.284,2.5c.717,1.412,1.872,3.049,3.413,2.771a3.734,3.734,0,0,0,1.787-1.145l5.756-5.51,6.034-5.766c3.53-3.37,7.125-6.826,9.436-11.148,1.8,3.124,5,5.167,7.179,8.024.834,1.07,1.519,2.279,2.268,3.434,1.188,1.84,2.546,3.573,3.894,5.349l6.922,8.826a13.244,13.244,0,0,0,3.209,3.21,12.25,12.25,0,0,0,5.552,1.487,73.362,73.362,0,0,0,7.82.278,13.481,13.481,0,0,0,5.831-1.07,5.285,5.285,0,0,0,3.156-4.7,6.891,6.891,0,0,0-.995-2.921C509.737,643.66,506.507,639.894,501.853,637.68Z"
     transform="translate(-160.958 -172.7)"
     fill="#2f2e41" />
  <ellipse
     id="Elipse_48"
     data-name="Elipse 48"
     cx="2.343"
     cy="2.354"
     rx="2.343"
     ry="2.354"
     transform="translate(332.623 428.22)"
     fill="#e8e8f0" />
  <path
     id="Caminho_192"
     data-name="Caminho 192"
     d="M503.68,593.01a4.5,4.5,0,0,1,.257,3.381,13.71,13.71,0,0,1-1.508,3.113,14.823,14.823,0,0,1-1.958,2.781c3.616.171,7.114-1.241,10.292-2.953,2.568-1.38,5.125-3.081,6.494-5.659a3,3,0,0,1-2.4-.449,8.562,8.562,0,0,1-1.83-1.7l-1.808-2.033a8.133,8.133,0,0,1-1.07-1.466,4.044,4.044,0,0,1-.481-2.364,13.762,13.762,0,0,1-2.4,1.99c-1.294.845-2.717,1.455-4.023,2.289-.449.3-1.476.77-1.209,1.369S503.316,592.368,503.68,593.01Z"
     transform="translate(-170.352 -164.357)"
     fill="#fbbebe" />
  <path
     id="Caminho_193"
     data-name="Caminho 193"
     d="M503.68,593.01a4.5,4.5,0,0,1,.257,3.381,13.71,13.71,0,0,1-1.508,3.113,14.823,14.823,0,0,1-1.958,2.781c3.616.171,7.114-1.241,10.292-2.953,2.568-1.38,5.125-3.081,6.494-5.659a3,3,0,0,1-2.4-.449,8.562,8.562,0,0,1-1.83-1.7l-1.808-2.033a8.133,8.133,0,0,1-1.07-1.466,4.044,4.044,0,0,1-.481-2.364,13.762,13.762,0,0,1-2.4,1.99c-1.294.845-2.717,1.455-4.023,2.289-.449.3-1.476.77-1.209,1.369S503.316,592.368,503.68,593.01Z"
     transform="translate(-170.352 -164.357)"
     opacity="0.1" />
  <path
     id="Caminho_194"
     data-name="Caminho 194"
     d="M504.439,592.885a3.049,3.049,0,0,0,0,3.53c.107.128.492.931.653.941a.588.588,0,0,0,.407-.214,26.871,26.871,0,0,0,2.289-2.728,5.092,5.092,0,0,1,2.91-1.9,6.291,6.291,0,0,1,4.012,1.252,3.808,3.808,0,0,1,1.38,1.07,3.735,3.735,0,0,1,.449,1.53,73.709,73.709,0,0,1,.407,9.725,38.319,38.319,0,0,1-.46,7.007c-.235,1.188-.578,2.354-.738,3.563a22.737,22.737,0,0,0-.15,3.209v4.472a11.771,11.771,0,0,0,.171,2.45c.214.974.674,1.883.984,2.835a18.544,18.544,0,0,1,.653,3.349l.61,4.622c.193,1.455.342,3.049-.546,4.279-.4.524-.92.952-1.327,1.476-1.508,1.969-1.07,4.782-1.658,7.189a8.966,8.966,0,0,1-2.931,4.493,4.847,4.847,0,0,1-3.862,1.38c-1.883-.353-3.006-2.311-3.52-4.162s-.7-3.862-1.808-5.424a14.388,14.388,0,0,0-3.573-2.985A6.173,6.173,0,0,1,496,640.214c-.118-.674,0-1.369-.118-2.054a4.846,4.846,0,0,0-2.985-3.926c-.963-.374-2.14-.513-2.7-1.391a6.494,6.494,0,0,0,2.814-3.776,19.4,19.4,0,0,0,.685-4.772l.321-5.349c.15-2.407.214-4.782,1.273-6.943.471-.963,1.07-1.872,1.551-2.824a30.664,30.664,0,0,0,1.658-4.14c.77-2.2,1.541-4.408,2.225-6.633a12.5,12.5,0,0,1,1.22-3.092C502.524,594.308,503.359,593.1,504.439,592.885Z"
     transform="translate(-169.07 -174.057)"
     fill="#e8e8f0" />
  <path
     id="Caminho_195"
     data-name="Caminho 195"
     d="M492.37,627.867h1.423l.3-2.14a4.463,4.463,0,0,1,.3-1.252,7.487,7.487,0,0,1,.824-1.2c1.391-1.979,1.294-4.6,1.637-7.008a35.657,35.657,0,0,1,3.124-9.158l2.76-6.151a8.492,8.492,0,0,0,.6-1.573,9.428,9.428,0,0,0,.171-1.819c0-.952.3-4.418.332-5.349,0-.353-.781-.16-.941-.471-.342-.685-.813,1.166-1.466,1.573a3.6,3.6,0,0,0-1.273,1.862c-.6,1.541-.963,3.21-1.519,4.739a9.682,9.682,0,0,1-2.578,4.194c-.567.492-1.22.888-1.755,1.423-1.712,1.69-1.883,4.376-1.936,6.793C492.327,613.81,492.049,627.867,492.37,627.867Z"
     transform="translate(-167.521 -165.474)"
     fill="#2f2e41" />
  <path
     id="Caminho_196"
     data-name="Caminho 196"
     d="M512.347,590.479a4.857,4.857,0,0,0-2.535,3.477,17.588,17.588,0,0,1-1.284,4.279c-1.733,3.017-6.152,3.894-7.382,7.157a13.16,13.16,0,0,0-.492,3.37c-.214,2.343-.984,4.6-1.22,6.932a30.894,30.894,0,0,0,.128,5.445l1.551,18.422a24.608,24.608,0,0,1-.46,8.109,7.81,7.81,0,0,0,4.643-.77c1.444-.663,2.771-1.573,4.172-2.343,2.4-1.327,5.049-2.257,7.157-4.023a4.38,4.38,0,0,0,.963-1.07,9.251,9.251,0,0,0,.642-2.418,13.056,13.056,0,0,1,.7-1.9,56.09,56.09,0,0,0,2.011-5.692,32.689,32.689,0,0,0,.92-3.894c.171-1.07.267-2.14.353-3.209a18.829,18.829,0,0,1,.984-4.868,39.21,39.21,0,0,0,2.257-11.683,6.105,6.105,0,0,0-.118-1.712,9.157,9.157,0,0,0-.941-1.958c-.642-1.209-1.07-2.535-1.626-3.766a18.518,18.518,0,0,0-6.323-6.644C515.2,590.875,513.748,589.977,512.347,590.479Z"
     transform="translate(-171.274 -166.719)"
     fill="#2f2e41" />
  <path
     id="Caminho_197"
     data-name="Caminho 197"
     d="M482.383,618.976a11.157,11.157,0,0,1-2.942-2.236c-.385-.449-.706-.952-1.07-1.4a7.286,7.286,0,0,0-3.7-2.14,18.085,18.085,0,0,0-4.279-.417,7.767,7.767,0,0,0-2.856.342,2.91,2.91,0,0,0-1.894,2.033,3.37,3.37,0,0,0,1.444,3,6.8,6.8,0,0,0,2.878,1.391,23.019,23.019,0,0,0,2.6.31c5.114.535,9.682,3.317,14.165,5.852q5.905,3.359,12.046,6.248a25.033,25.033,0,0,0,.2-3.691c0-.92-.075-2.332-.941-2.878a18.9,18.9,0,0,0-3.83-1.145,60.268,60.268,0,0,1-7.714-3.124A38.379,38.379,0,0,1,482.383,618.976Z"
     transform="translate(-163.166 -164.635)"
     fill="#fbbebe" />
  <ellipse
     id="Elipse_49"
     data-name="Elipse 49"
     cx="9.115"
     cy="9.168"
     rx="9.115"
     ry="9.168"
     transform="translate(324.936 410.021)"
     fill="#fbbebe" />
  <path
     id="Caminho_198"
     data-name="Caminho 198"
     d="M515.4,600.256a14.614,14.614,0,0,0-1.765,3.306c-1.07,2.311-2.889,4.279-3.777,6.729s-.9,5.6-2.728,7.6a2.664,2.664,0,0,0-.8,1.155,5.519,5.519,0,0,1-.086.835c-.268.727-1.455.76-1.68,1.508-.064.214,0,.449-.107.663-.182.481-.824.556-1.241.845-.888.6-.706,1.99-1.337,2.856a2.407,2.407,0,0,1-2.279.8,8.027,8.027,0,0,1-2.364-.888,2.281,2.281,0,0,0-.856-.267,1.765,1.765,0,0,0-.984.342,6.066,6.066,0,0,0-2.461,5.189,16.948,16.948,0,0,0,1.412,5.809,2.332,2.332,0,0,0,.46.867,2.044,2.044,0,0,0,2.268.171,10.7,10.7,0,0,1,2.215-.995c1.412-.257,2.792.717,4.226.631a5.874,5.874,0,0,0,2.846-1.252,15.727,15.727,0,0,0,3.83-3.209c.62-.824,1.07-1.755,1.626-2.632a33.759,33.759,0,0,1,2.3-3.07l5.263-6.419a14.783,14.783,0,0,0,1.412-1.947,13.729,13.729,0,0,0,1.07-2.942,22.533,22.533,0,0,0,1.07-5.232,20.105,20.105,0,0,0-.385-4.386,15.5,15.5,0,0,0-1.07-4.183C520.329,599.721,517.547,597.753,515.4,600.256Z"
     transform="translate(-170.063 -165.687)"
     fill="#2f2e41" />
  <path
     id="Caminho_199"
     data-name="Caminho 199"
     d="M534.045,590.942a10.27,10.27,0,0,0-4.215-8.345,12.207,12.207,0,0,0-10.367-11.886,11.843,11.843,0,0,0-23.333.631c-3.787-.856-7.253.257-7.885,2.589s2.043,5.349,6.034,6.419a11.24,11.24,0,0,0,3.873.385,11.854,11.854,0,0,0,8.152,5.082,12.164,12.164,0,0,0,8.9,9.179,10.217,10.217,0,0,0,2.749,3.8v.888a7.713,7.713,0,1,0,15.427,0,8.238,8.238,0,0,0-.738-3.413A10.312,10.312,0,0,0,534.045,590.942Z"
     transform="translate(-170.862 -165.786)"
     fill="#f86d70" />
  <path
     id="Caminho_200"
     data-name="Caminho 200"
     d="M490.814,574.424c.631-2.332,4.1-3.445,7.885-2.589a12.046,12.046,0,0,1,11.768-10.142h.781a11.6,11.6,0,0,0-3.359-.5,12.046,12.046,0,0,0-11.768,10.142c-3.787-.856-7.254.257-7.885,2.589s2.043,5.349,6.034,6.419a11.773,11.773,0,0,0,2.289.4C492.74,579.591,490.183,576.81,490.814,574.424Z"
     transform="translate(-167.899 -164.382)"
     opacity="0.1" />
  <path
     id="Caminho_201"
     data-name="Caminho 201"
     d="M519.812,598.83a8.042,8.042,0,0,1,0-.877,9.992,9.992,0,0,1-2.75-3.8,12.132,12.132,0,0,1-8.9-9.19A11.821,11.821,0,0,1,500,579.894a10.267,10.267,0,0,1-2.279-.064,11.886,11.886,0,0,0,7.863,4.675,12.164,12.164,0,0,0,8.9,9.179,10.217,10.217,0,0,0,2.749,3.8v.888a7.853,7.853,0,0,0,7.671,7.981A7.981,7.981,0,0,1,519.812,598.83Z"
     transform="translate(-170.977 -164.852)"
     opacity="0.1" />
  <ellipse
     id="Elipse_50"
     data-name="Elipse 50"
     cx="1.401"
     cy="1.872"
     rx="1.401"
     ry="1.872"
     transform="translate(333.524 420.514) rotate(-37.22)"
     fill="#fbbebe" />
  <path
     opacity="0.1"
     d="m 249.10903,208.83034 a 106.983,106.983 0 1 0 106.93,106.94699 106.983,106.983 0 0 0 -106.93,-106.94699 z m 0,199.65099 a 92.722,92.722 0 1 1 92.722,-92.722 92.722,92.722 0 0 1 -92.722,92.722 z"
     data-name="Caminho 130"
     id="Caminho_130-6" />
</svg>
