<svg id="Componente_12_1" data-name="Componente 12 – 1" xmlns="http://www.w3.org/2000/svg" width="601" height="498" viewBox="0 0 601 498">
  <ellipse id="Elipse_7" data-name="Elipse 7" cx="273.576" cy="29.285" rx="273.576" ry="29.285" transform="translate(53.835 411.385)" fill="#03658C"/>
  <path id="Caminho_22" data-name="Caminho 22" d="M809.375,702.031l4.728,13.927s22.773,22.491,14.537,28.587-26.716-26.04-26.716-26.04l-3.406-15.723Z" transform="translate(-346.341 -293.765)" fill="#ffb8b8"/>
  <path id="Caminho_23" data-name="Caminho 23" d="M755.647,553.988l6.893-2.2s10.722,2.928,12.254,13.178,13.019,62.23,13.019,62.23,4.6,2.2,1.532,5.857,15.317,36.606,15.317,36.606l-14.551,6.589s-29.1-29.285-29.1-32.213.766-5.857.766-8.785-.766-2.928,0-5.125a22.566,22.566,0,0,0,.766-5.857l-5.361-11.714Z" transform="translate(-336.262 -253.518)" fill="#f2a0a0"/>
  <ellipse id="Elipse_8" data-name="Elipse 8" cx="69.246" cy="135.068" rx="69.246" ry="135.068" transform="translate(0 107.28)" fill="#f2a0a0"/>
  <path id="Caminho_24" data-name="Caminho 24" d="M295.388,404.535c3.454-58.794,10.414-98.507,10.484-98.9l-1.51-.245c-.07.395-7.042,40.172-10.5,99.042-3.193,54.333-3.963,136.516,10.5,219.478l1.511-.24C291.432,540.847,292.2,458.789,295.388,404.535Z" transform="translate(-226.778 -187.511)" fill="#3f3d56"/>
  <path id="Caminho_208" data-name="Caminho 208" d="M0,0,70.317,1.3l.028,1.479L.028,1.479Z" transform="translate(68.527 247.372) rotate(-28.157)" fill="#3f3d56"/>
  <path id="Caminho_209" data-name="Caminho 209" d="M0,0,1.479.028l1.3,70.318L1.3,70.318Z" transform="translate(2.432 231.106) rotate(-61.858)" fill="#3f3d56"/>
  <ellipse id="Elipse_9" data-name="Elipse 9" cx="94.758" cy="184.829" rx="94.758" ry="184.829" transform="translate(138.091)" fill="#e6e6e6"/>
  <path id="Caminho_25" data-name="Caminho 25" d="M508.647,265.113c4.727-71.143,14.253-119.2,14.349-119.674l-1.51-.216c-.1.478-9.634,48.588-14.367,119.8C502.75,330.744,501.7,430.153,521.486,530.5l1.511-.212C503.232,430.064,504.284,330.766,508.647,265.113Z" transform="translate(-277.014 -94.105)" fill="#3f3d56"/>
  <path id="Caminho_210" data-name="Caminho 210" d="M0,0,96.223,1.781l.028,1.479L.028,1.479Z" transform="translate(231.861 176.681) rotate(-28.157)" fill="#3f3d56"/>
  <path id="Caminho_211" data-name="Caminho 211" d="M0,0,1.479.028l1.78,96.224L1.78,96.224Z" transform="translate(141.625 153.891) rotate(-61.858)" fill="#3f3d56"/>
  <ellipse id="Elipse_10" data-name="Elipse 10" cx="35.404" cy="69.057" rx="35.404" ry="69.057" transform="translate(118.64 266.212)" fill="#e6e6e6"/>
  <path id="Caminho_26" data-name="Caminho 26" d="M397.815,569.037l.21.375,32.011-16.379-.722-1.291-31.431,16.082a493.428,493.428,0,0,1,5.368-51.552l-1.51-.245c-.078.442-4.305,24.838-5.805,60.14l-31.7-16.22-.722,1.292,32.01,16.379.382-.683C394.7,606.07,395.377,642.5,401.74,679l1.511-.24C396.313,638.965,396.161,599.248,397.815,569.037Z" transform="translate(-243.802 -243.937)" fill="#3f3d56"/>
  <path id="Caminho_27" data-name="Caminho 27" d="M738.841,452.158c-12.31-20.057-36.665-20.991-36.665-20.991s-23.733-2.926-38.957,27.62c-14.19,28.472-33.775,55.962-3.153,62.627l5.531-16.6,3.425,17.836a124.24,124.24,0,0,0,13.1.216c32.794-1.021,64.024.3,63.019-11.048C743.806,496.733,750.686,471.456,738.841,452.158Z" transform="translate(-309.976 -199.483)" fill="#2f2e41"/>
  <path id="Caminho_28" data-name="Caminho 28" d="M654.4,675.636a43.167,43.167,0,0,1-1.493,6.2c-.732,1.985-1.863,3.822-2.532,5.828-2.134,6.394.825,13.523,5.55,18.459a31.488,31.488,0,0,0,15.231,8.721,64.357,64.357,0,0,0,13.089,1.326c12.165.4,24.643.754,36.171-3.016a64,64,0,0,0,10.509-4.6,7.831,7.831,0,0,0,2.727-2.07,7.025,7.025,0,0,0,.984-4.247c-.026-4.973-1.071-9.92-.823-14.887.137-2.751.672-5.5.409-8.243A15.409,15.409,0,0,0,722.163,666c-3.27-.677-6.662-.308-9.991,0q-12.962,1.2-26,1.121c-8.87-.055-17.686-1.36-26.512-1.5-2.61-.04-2.557.736-3.388,3.171A57.65,57.65,0,0,0,654.4,675.636Z" transform="translate(-311.321 -284.01)" fill="#2f2e41"/>
  <path id="Caminho_29" data-name="Caminho 29" d="M603.061,673.5a27.175,27.175,0,0,0-7.3-.748,18.7,18.7,0,0,0-13.31,6.672,17.339,17.339,0,0,0-3.608,14.04,28.846,28.846,0,0,0,2.893,7.623c1.936,3.789,4.258,7.569,7.843,10a31.065,31.065,0,0,0,6.922,3.177l18.878,6.857c2.777,1.009,5.555,2.018,8.36,2.953a168.849,168.849,0,0,0,43.663,8.37,49,49,0,0,0,13.557-.662,3.406,3.406,0,0,0,3.4-3.422l1.162-7.842a6.343,6.343,0,0,0-.1-3.306,6.473,6.473,0,0,0-3.138-2.851c-12.411-6.873-26.9-10.665-37.349-20.1-2.459-2.221-4.517-5.741-7.505-7.25-3.388-1.711-7.379-2.687-10.881-4.263C618.887,679.3,611.359,675.341,603.061,673.5Z" transform="translate(-294.575 -285.917)" fill="#2f2e41"/>
  <path id="Caminho_30" data-name="Caminho 30" d="M632.577,687.561c6.673,2.016,34.845,15.984,39.674,20.86-.647.225-22.608-11.642-23.267-11.833a136.01,136.01,0,0,1-17.7-6.015c-1.144-.51-7.434-2.909-7.149-4.3C624.454,684.7,631.393,687.2,632.577,687.561Z" transform="translate(-305.246 -289.406)" opacity="0.1"/>
  <path id="Caminho_31" data-name="Caminho 31" d="M735.494,753.752a1.609,1.609,0,0,0,1.058-.3,1.535,1.535,0,0,0,.331-1.174l-.031-10.683c-3.186-1.464-6.75-1.933-10.248-2.384l-16.321-2.1c.375.048-2.552,6.778-2.1,7.677.791,1.584,6.836,2.987,8.542,3.735C722.652,751.119,728.815,753.976,735.494,753.752Z" transform="translate(-325.028 -303.161)" fill="#ffb8b8"/>
  <path id="Caminho_32" data-name="Caminho 32" d="M673.921,740.38c-3.082.473-6.521.892-8.517,3.2-2.531,2.933-1.453,7.306-.246,10.94a4.65,4.65,0,0,0,1.05,1.991,5.046,5.046,0,0,0,3.242.969c2.81.172,5.8.306,8.257-1.023a36.137,36.137,0,0,0,3.207-2.3,20.93,20.93,0,0,1,5.9-2.6,61.571,61.571,0,0,1,11.837-2.352,19.021,19.021,0,0,0,4.663-.793,5.086,5.086,0,0,0,3.284-3.074c.569-1.941-.6-3.921-1.724-5.623a22.611,22.611,0,0,0-4.964-5.915c-3.041-2.278-4.545-.529-7.609.928A66.282,66.282,0,0,1,673.921,740.38Z" transform="translate(-314.61 -301.982)" fill="#ffb8b8"/>
  <path id="Caminho_33" data-name="Caminho 33" d="M655.1,744.3l-19.567-5.576a26.75,26.75,0,0,0-7.282-1.361,8.91,8.91,0,0,0-6.687,2.608c-1.517,1.717-1.952,4.064-2.33,6.29l-.809,4.762a23.079,23.079,0,0,0-.453,7.313,8.058,8.058,0,0,0,3.887,6.025c2.708,1.424,6.026.729,9.048.133a102.033,102.033,0,0,1,18.543-1.917c2.342-.027,4.8,0,6.868-1.056a8.236,8.236,0,0,0,4.185-6.589C660.884,750.866,659.478,745.553,655.1,744.3Z" transform="translate(-303.763 -303.231)" fill="#2f2e41"/>
  <path id="Caminho_34" data-name="Caminho 34" d="M751.367,738.821c2.536-.429,4.775-1.819,7.206-2.639,3.421-1.155,7.129-1.155,10.753-1.142a7.121,7.121,0,0,1,3.855.745c1.6,1.025,2.006,3.076,2.277,4.907l1.638,11.046a16.726,16.726,0,0,1,.134,6.258,5.956,5.956,0,0,1-4.034,4.549c-2.559.641-5.067-.935-7.483-1.97-6.038-2.588-13.057-1.926-19.353-3.86a4.333,4.333,0,0,1-2.9-2,4.39,4.39,0,0,1-.225-1.909c.108-3.551-.669-8.4.44-11.793C744.675,737.963,748.536,738.821,751.367,738.821Z" transform="translate(-333.274 -302.607)" fill="#2f2e41"/>
  <path id="Caminho_35" data-name="Caminho 35" d="M783.051,667.347a35.2,35.2,0,0,1,11.969-.788c3.2.34,6.5,1.2,8.833,3.334,2.844,2.6,3.757,6.619,3.834,10.4a31.744,31.744,0,0,1-7.322,20.744,19.228,19.228,0,0,1-4.186,3.886,28.01,28.01,0,0,1-5.446,2.531l-42.277,16.079c-11.122,4.23-22.284,8.472-33.885,11.261a2.743,2.743,0,0,1-2.052.1,2.588,2.588,0,0,1-1.5-1.341,83.573,83.573,0,0,1-9.266-16.344,1.419,1.419,0,0,1-.119-1.224,1.5,1.5,0,0,1,.624-.512l29.9-16.567a30.3,30.3,0,0,0,6.086-4.044,14.6,14.6,0,0,0,3.125-4.195c.62-1.248.678-4.194,1.469-5.117.775-.9,3.427-.976,4.652-1.331a43.194,43.194,0,0,0,5.064-1.846c6.689-2.885,12.646-7.078,19.058-10.456A49.923,49.923,0,0,1,783.051,667.347Z" transform="translate(-323.598 -284.21)" fill="#2f2e41"/>
  <path id="Caminho_36" data-name="Caminho 36" d="M771.16,683.451c-5.138,3.721-11.79,7.141-16.881,10.959-1.738,1.3-30.707,17.007-31.116,19.093,4.75.772,35.01-19.64,39.34-21.677a70.132,70.132,0,0,0,11.97-7.76c.969-.727,5.076-2.911,2.294-3.723C775.2,679.886,772.317,682.707,771.16,683.451Z" transform="translate(-328.61 -287.942)" opacity="0.1"/>
  <ellipse id="Elipse_11" data-name="Elipse 11" cx="29.102" cy="27.82" rx="29.102" ry="27.82" transform="translate(362.058 247.984)" fill="#ffb8b8"/>
  <path id="Caminho_37" data-name="Caminho 37" d="M723.173,521.453s-4.6,10.982,3.829,15.374-26.039,39.534-26.039,39.534L685.647,533.9s13.019-4.393,10.722-16.107Z" transform="translate(-319.746 -227.295)" fill="#ffb8b8"/>
  <path id="Caminho_38" data-name="Caminho 38" d="M695.13,555.035l18.547-19.574,25.106,12.253-3.829,86.39-6.127,6.589s-26.039,21.963-65.863,3.661c0,0-13.785-10.982-13.019-27.82s-1.532-19.035-1.532-19.035l-.766-59.3,37.811-7.093Z" transform="translate(-310.855 -236.844)" fill="#f2a0a0"/>
  <path id="Caminho_39" data-name="Caminho 39" d="M592.161,691.031l-4.728,13.927s-22.773,22.491-14.536,28.588,26.716-26.04,26.716-26.04l3.406-15.723Z" transform="translate(-292.726 -290.818)" fill="#ffb8b8"/>
  <path id="Caminho_40" data-name="Caminho 40" d="M640.661,542.988l-6.893-2.2s-10.722,2.928-12.254,13.178S608.5,616.2,608.5,616.2s-4.6,2.2-1.532,5.857-15.317,36.606-15.317,36.606l14.551,6.589s29.1-29.285,29.1-32.213-.766-5.857-.766-8.785.766-2.928,0-5.125a22.566,22.566,0,0,1-.766-5.857l5.361-11.714Z" transform="translate(-297.589 -240.649)" fill="#f2a0a0"/>
  <path id="Caminho_41" data-name="Caminho 41" d="M534.307,377.376l-24.062-12.152L477.017,370.2l-6.875,29.278,17.114-.635,4.78-10.756v10.578l7.9-.293,4.584-17.124,2.864,18.23,28.072-.553Z" transform="translate(-110.886 -124.095)" fill="#2f2e41"/>
  <path id="Caminho_42" data-name="Caminho 42" d="M496.8,712.781V755.01H361.877c0-23.319,19.776-42.226,44.172-42.229,12.654-3.77,27.282-4.971,43.15-4.576C464.171,708.572,480.247,710.366,496.8,712.781Z" transform="translate(-243.455 -295.4)" fill="#ff6584"/>
  <path id="Caminho_43" data-name="Caminho 43" d="M306.037,684.178h63.449a3.93,3.93,0,0,1,4.016,3.839h0a3.93,3.93,0,0,1-4.016,3.839H306.037v-7.678Z" transform="translate(-72.183 -233.78)" fill="#3f3d56"/>
  <path id="Caminho_44" data-name="Caminho 44" d="M527.238,657.022l17.007-19.707a4.5,4.5,0,0,1,4.407-2.407A4.42,4.42,0,0,1,552.566,638l6.707,22.636Z" transform="translate(-282.386 -264.849)" fill="#3f3d56"/>
  <path id="Caminho_45" data-name="Caminho 45" d="M500.3,668.194l6.425-24.8a4.278,4.278,0,0,1,2.885-3.992,4.6,4.6,0,0,1,4.926,1.168l16.283,17.641Z" transform="translate(-276.035 -266.539)" fill="#ff6584"/>
  <path id="Caminho_46" data-name="Caminho 46" d="M155.024,696.762h12.85v26.1c0,6.784-5.753,12.284-12.85,12.284h0Z" transform="translate(-36.54 -237.151)" fill="#ff6584"/>
  <path id="Caminho_47" data-name="Caminho 47" d="M302.891,686.275H366.34a3.93,3.93,0,0,1,4.016,3.839h0a3.93,3.93,0,0,1-4.016,3.839H302.891Z" transform="translate(-71.441 -234.341)" fill="#ff6584"/>
  <path id="Caminho_48" data-name="Caminho 48" d="M523.392,712.808V754.8a44.556,44.556,0,0,1-35.61-12.255,40.356,40.356,0,0,1-11.995-34.315C490.759,708.6,506.834,710.392,523.392,712.808Z" transform="translate(-270.183 -295.426)" opacity="0.2"/>
  <ellipse id="Elipse_12" data-name="Elipse 12" cx="43.37" cy="41.46" rx="43.37" ry="41.46" transform="translate(209.796 376.692)" fill="#ff6584"/>
  <ellipse id="Elipse_13" data-name="Elipse 13" cx="4.819" cy="10.749" rx="4.819" ry="10.749" transform="translate(290.012 410.474)" fill="#3f3d56"/>
  <ellipse id="Elipse_14" data-name="Elipse 14" cx="1.205" cy="2.687" rx="1.205" ry="2.687" transform="translate(282.004 407.403)" fill="#3f3d56"/>
  <ellipse id="Elipse_15" data-name="Elipse 15" cx="1.205" cy="2.687" rx="1.205" ry="2.687" transform="translate(290.821 402.029)" fill="#3f3d56"/>
  <path id="Caminho_49" data-name="Caminho 49" d="M532.57,655.912s-2.411-4.008-2.411-6.454" transform="translate(-283.049 -268.337)" fill="#3f3d56"/>
  <path id="Caminho_50" data-name="Caminho 50" d="M534.692,652.478s1.313-4.45,3.143-6.159" transform="translate(-284.118 -267.261)" fill="#3f3d56"/>
</svg>
