<svg xmlns="http://www.w3.org/2000/svg" width="91.016" height="93.018" viewBox="0 0 91.016 93.018"><g transform="translate(0 1.508)"><path d="M-1758.343-1872.543a32.057,32.057,0,0,0-7.676-4.935,24.833,24.833,0,0,0-7.968-2.27v-8.291s17.357-6.261,14.575-23.293-19.156-17.87-21.96-17.766-17.531.868-20.4,17.766,13.895,23.293,13.895,23.293v8.291a44.387,44.387,0,0,0-4.373,1.184,20.738,20.738,0,0,0-3.886,1.777" transform="translate(1848.343 1929.104)" fill="none" stroke="#fff" stroke-width="3"/><path d="M-1818.035-1901.359a18.235,18.235,0,0,0,7.173-5.5,19.418,19.418,0,0,0,4.39-8.91c.769-6.3-3.063-8.463-6.509-7.787-2.716.518-5.054,3.938-5.054,3.938s-2.291-3.727-5.288-3.938a6.008,6.008,0,0,0-5.317,2.951,8.073,8.073,0,0,0-1.327,4.313c-.144,2.452,2.1,6.81,5.174,9.973A31.01,31.01,0,0,0-1818.035-1901.359Z" transform="translate(1840.313 1930.78)" fill="none" stroke="#fff" stroke-width="3"/><g transform="translate(0 43.806)" fill="none"><path d="M23.314-6.9c.861,3.044,2.379,6.077,5.339,12.3,1.169,2.459.026,0,4.318,5.862a14.309,14.309,0,0,1,1.727,7.3c0,9.249-8.285,18.292-17.534,18.292S0,27.983,0,18.735A17.086,17.086,0,0,1,2.563,9.9c3.585-4.868,2.7-2.8,3.606-4.863C7.482,2.315,10.232-3.147,11-6.219,12.22-3.884,14.5,1.6,14.5,1.6H19.81S22.5-5,23.314-6.9Z" stroke="none"/><path d="M 23.27255821228027 1.061225891113281 C 22.87384796142578 2.036640167236328 22.59704399108887 2.715904235839844 22.58849716186523 2.736886978149414 L 21.82738494873047 4.604915618896484 L 19.81024551391602 4.604915618896484 L 14.50312614440918 4.604915618896484 L 12.50171661376953 4.604915618896484 L 11.73314666748047 2.756956100463867 C 11.72637939453125 2.740692138671875 11.51749610900879 2.239053726196289 11.19770812988281 1.486667633056641 C 10.55682373046875 2.874300003051758 9.908100128173828 4.207921981811523 9.360685348510742 5.333286285400391 C 9.191242218017578 5.681638717651367 9.03375244140625 6.005376815795898 8.892396926879883 6.29829216003418 C 8.421863555908203 7.365575790405273 8.235029220581055 7.776845932006836 7.530485153198242 8.501375198364258 C 7.256923675537109 8.782695770263672 6.694168090820313 9.361415863037109 5.086433410644531 11.53619956970215 C 3.250278472900391 14.82747459411621 2.999996185302734 17.02062034606934 2.999996185302734 18.73471641540527 C 2.999996185302734 22.45022583007813 4.571756362915039 26.27309608459473 7.312255859375 29.22310638427734 C 8.641975402832031 30.65448570251465 10.21983528137207 31.82937622070313 11.87523651123047 32.62075805664063 C 13.59342575073242 33.44215774536133 15.37322616577148 33.85863494873047 17.16517639160156 33.85863494873047 C 20.71085548400879 33.85863494873047 24.37542533874512 32.13173675537109 27.21924591064453 29.12074661254883 C 30.06606674194336 26.10657691955566 31.69879531860352 22.25957679748535 31.69879531860352 18.56614685058594 C 31.69879531860352 16.26426887512207 31.2812328338623 14.362060546875 30.45737266540527 12.90930366516113 C 28.46426391601563 10.19316101074219 27.77071952819824 9.450017929077148 27.43475532531738 9.09002685546875 C 26.74751663208008 8.353635787963867 26.57292556762695 8.013416290283203 25.94415664672852 6.690876007080078 C 25.62476539611816 6.01905632019043 25.32218551635742 5.384475708007813 25.03543472290039 4.783086776733398 C 24.37010955810547 3.387731552124023 23.78641510009766 2.163570404052734 23.27255821228027 1.061225891113281 M 23.31435585021973 -6.900142669677734 C 24.17575454711914 -3.856552124023438 25.69367599487305 -0.8229942321777344 28.65354537963867 5.402765274047852 C 29.82269668579102 7.861936569213867 28.6798152923584 5.402765274047852 32.97157669067383 11.26480674743652 C 34.3134765625 13.53153610229492 34.69879531860352 16.17606735229492 34.69879531860352 18.56614685058594 C 34.69879531860352 27.81484603881836 26.41388702392578 36.85863494873047 17.16517639160156 36.85863494873047 C 7.916465759277344 36.85863494873047 -3.814697265625e-06 27.98342514038086 -3.814697265625e-06 18.73471641540527 C -3.814697265625e-06 16.21762657165527 0.5332260131835938 13.48328590393066 2.562515258789063 9.903985977172852 C 6.14776611328125 5.036376953125 5.257816314697266 7.106046676635742 6.168045043945313 5.041095733642578 C 7.482484817504883 2.314735412597656 10.23178482055664 -3.147312164306641 10.9996452331543 -6.218952178955078 C 12.22034645080566 -3.883823394775391 14.50312614440918 1.604915618896484 14.50312614440918 1.604915618896484 L 19.81024551391602 1.604915618896484 C 19.81024551391602 1.604915618896484 22.50002670288086 -4.99676513671875 23.31435585021973 -6.900142669677734 Z" stroke="none" fill="#fff"/></g><path d="M-1835.4-1869.347c-1.047,5.087,9.118,15.64,22.348,17.994a41.578,41.578,0,0,0,30.5-5.77,18.607,18.607,0,0,0,8-14.425c.143-4.813-2.839-10.311-8.446-14.273-12.034-8.5-28.1-5.466-28.1-5.466" transform="translate(1838.726 1940.608)" fill="none" stroke="#fff" stroke-width="3"/><path d="M-1812.026-1854.187c-3.662-.518-6.278-8.414,2.392-8.11s13.3-2.885,13.3-2.885a16.059,16.059,0,0,0,5.83-4.783,16.448,16.448,0,0,0,2.392-6c1.345-6.453,7.026-4.176,7.474-2.126" transform="translate(1844.497 1944.187)" fill="none" stroke="#fff" stroke-width="3"/></g></svg>